<svg xmlns="http://www.w3.org/2000/svg" xmlns:xlink="http://www.w3.org/1999/xlink" width="61.181" height="61.414" viewBox="0 0 61.181 61.414"><defs><clipPath id="clip-path"><rect id="Rectangle_7135" width="61.181" height="61.414" fill="#6ba53a" data-name="Rectangle 7135"/></clipPath></defs><g id="Group_10460" data-name="Group 10460" transform="translate(0)"><g id="Group_10459" clip-path="url(#clip-path)" data-name="Group 10459" transform="translate(0)"><path id="Path_8509" fill="#6ba53a" d="M39.855,54.771c0-2.716.045-5.433-.017-8.148a3.26,3.26,0,0,1,1.961-3.3c4.736-2.5,9.428-5.094,14.106-7.7a3.228,3.228,0,0,1,3.44.006q7.1,3.931,14.247,7.779a2.882,2.882,0,0,1,1.742,2.77c-.016,5.751.05,11.5-.068,17.253a3.164,3.164,0,0,1-1.428,2.221c-4.741,2.715-9.551,5.311-14.364,7.9a3.92,3.92,0,0,1-3.945-.079q-6.965-3.849-13.964-7.636a2.993,2.993,0,0,1-1.746-3.077c.1-2.659.027-5.325.027-7.987Zm15.283,12.6c0-3.847.012-7.4-.021-10.943a1.2,1.2,0,0,0-.473-.891c-3.131-1.747-6.287-3.449-9.689-5.3,0,3.91-.01,7.509.021,11.108a1.027,1.027,0,0,0,.471.731c3.138,1.739,6.293,3.445,9.692,5.295m5.1.006A57.8,57.8,0,0,1,66.7,63.894c3.059-1.187,4.231-3.068,3.773-6.363a55.026,55.026,0,0,1-.062-7.3c-3.4,1.854-6.509,3.536-9.6,5.255a1.19,1.19,0,0,0-.556.834c-.038,3.591-.025,7.182-.025,11.056M47.824,45.9c3.328,1.834,6.419,3.545,9.524,5.23a.892.892,0,0,0,.732-.023c3.1-1.7,6.179-3.426,9.475-5.262-3.271-1.793-6.28-3.461-9.317-5.078a1.409,1.409,0,0,0-1.146.025c-3.016,1.627-6.007,3.3-9.268,5.109" data-name="Path 8509" transform="translate(-27.09 -23.9)"/><path id="Path_8510" fill="#6ba53a" d="M11.728.014c1.22,0,2.44,0,3.66,0,2.266,0,3.473.91,3.451,2.586s-1.2,2.522-3.516,2.528c-2.333.006-4.667-.013-7,0-2.274.012-3.157.906-3.169,3.2-.012,2.5.011,5-.008,7.507-.014,1.886-.977,3.015-2.53,3.029s-2.537-1.12-2.55-3C.046,13.206.027,10.543.058,7.881A7.648,7.648,0,0,1,7.909.009c1.273-.019,2.546,0,3.818,0Z" data-name="Path 8510" transform="translate(-0.028 0)"/><path id="Path_8511" fill="#6ba53a" d="M139.769.016c1.326,0,2.652-.022,3.978.007a7.628,7.628,0,0,1,7.611,7.615c.044,2.768.029,5.537.009,8.306-.013,1.763-.993,2.887-2.476,2.929-1.544.043-2.59-1.106-2.609-2.949-.026-2.608.012-5.218-.014-7.826-.02-2.008-.939-2.938-2.926-2.96-2.545-.027-5.091,0-7.637-.011-1.982-.011-3.145-1-3.119-2.6S133.764.022,135.791.015c1.326,0,2.652,0,3.978,0" data-name="Path 8511" transform="translate(-90.205 -0.006)"/><path id="Path_8512" fill="#6ba53a" d="M11.7,151.9c-1.432,0-2.866.051-4.3-.01a7.569,7.569,0,0,1-7.353-7.371c-.094-2.925-.05-5.856-.01-8.784a2.5,2.5,0,0,1,2.539-2.683,2.53,2.53,0,0,1,2.523,2.707c.042,2.661,0,5.324.019,7.986.016,2.1.929,3.025,3,3.043,2.492.022,4.985-.006,7.477.009,2.027.012,3.179.933,3.2,2.517.023,1.639-1.166,2.579-3.288,2.589-1.273.006-2.546,0-3.818,0V151.9" data-name="Path 8512" transform="translate(0 -90.522)"/><path id="Path_8513" fill="#6ba53a" d="M151.366,140.247c0,1.329.021,2.658,0,3.987a7.624,7.624,0,0,1-7.432,7.618c-2.857.076-5.718.037-8.578.009a2.556,2.556,0,1,1-.028-5.095c2.647-.039,5.295,0,7.942-.019,2.063-.018,2.983-.953,3-3.041.02-2.6-.016-5.21.013-7.814.02-1.784.984-2.869,2.483-2.9,1.561-.033,2.578,1.106,2.6,2.949.018,1.435,0,2.87,0,4.306" data-name="Path 8513" transform="translate(-90.201 -90.481)"/></g></g></svg>