<svg xmlns="http://www.w3.org/2000/svg" xmlns:xlink="http://www.w3.org/1999/xlink" width="63.558" height="63.565" viewBox="0 0 63.558 63.565"><defs><clipPath id="clip-path"><path id="Path_1136" fill="#6ba53a" d="M52.537,56.029v-.005a2.4,2.4,0,0,1,2.372-2.3v-.014a2.4,2.4,0,0,1,2.32,2.349,2.352,2.352,0,0,1-2.347,2.36h-.025a2.355,2.355,0,0,1-2.32-2.392m24.517-.065V55.95a2.348,2.348,0,0,1,4.692.157A2.362,2.362,0,0,1,79.314,58.4h0a2.353,2.353,0,0,1-2.258-2.432m-.893-17.657c.152-1.825.291-3.655.434-5.478,0-.083.029-.163.034-.246.134-1.14.134-1.14,1.332-1.14v-.014H85.2c-.294,1.348-.5,2.668-.88,3.935a4.857,4.857,0,0,1-4.5,3.353c-.611.027-1.221.023-1.836.02-.479,0-.961-.005-1.44.007-.379,0-.379-.152-.379-.437M52.68,31.42h4.21c.217,0,.444-.06.472.3q.233,3.263.5,6.526c.014.4-.052.509-.45.509v-.014q-4.081-.03-8.163,0c-.336,0-.43-.083-.464-.432q-.32-3.16-.714-6.314c-.058-.45.036-.593.528-.578.453.013.907.016,1.36.016.907,0,1.814-.016,2.719-.016M62.855,38.2q-.244-3.233-.528-6.466c-.04-.4.211-.314.417-.314h8.491c.352.011.511.049.468.506v-.014c-.188,1.949-.331,3.9-.475,5.854-.07.967-.052.967-.986.967h-6.8c-.426,0-.558-.128-.589-.531M47.82,26.481c-.249,0-.352-.061-.378-.336-.26-2.553-.544-5.108-.824-7.713H55.6c.508,0,.714.1.753.638.1,1.707.26,3.4.378,5.109.051.64.085,1.277.141,1.911.022.266,0,.408-.332.4q-4.355-.011-8.721,0Zm19.232-8.058H72.19c.4.013.58.049.538.533v-.014c-.219,2.374-.4,4.755-.589,7.138-.022.3-.1.408-.43.408q-4.7-.024-9.4,0c-.351,0-.378-.141-.419-.423-.143-1.828-.3-3.653-.446-5.478-.049-.573-.07-1.133-.139-1.722-.042-.378.089-.443.43-.443.591.007,1.182.009,1.772.009,1.183,0,2.365-.009,3.547-.009M31.834,0a2.155,2.155,0,0,0-1.465.822A2.881,2.881,0,0,0,30.1,3.657a2.418,2.418,0,0,0,2.376,1.481,8.384,8.384,0,0,1,8.311,7.6c.524,4.591,1,9.182,1.51,13.776.67,6.126,1.324,12.257,2.016,18.378A9.969,9.969,0,0,0,47.9,51.624c.578.49.585.479.24,1.171a7.387,7.387,0,0,0,1.254,8.39c2.2,2.4,4.67,2.835,7.9,1.973a7.366,7.366,0,0,0,4.97-8.448c-.152-.757-.152-.757.668-.757h8.423c.813,0,.793,0,.665.786a7.43,7.43,0,0,0,2.708,7.229,6.966,6.966,0,0,0,4.956,1.53,6.838,6.838,0,0,0,6.1-3.478,7.327,7.327,0,0,0-.289-8.311,7.081,7.081,0,0,0-6.164-3.095c-8.07-.023-16.137,0-24.21,0h-.8a4.779,4.779,0,0,1-4.533-3.57c-.264-1.059-.215-1.133.876-1.133H79.7a8.073,8.073,0,0,0,1.234-.065,10.189,10.189,0,0,0,8.714-8.309c.378-1.78.734-3.554,1.095-5.333a6.546,6.546,0,0,0,.121-1.353A2.338,2.338,0,0,0,90,27.012a2.894,2.894,0,0,0-2-.683H78.273c-.883,0-.97-.094-.887-.956.188-1.991.343-3.98.482-5.975.043-.612.145-.73.757-.73h8.358c.475,0,.676.181.668.654a2.174,2.174,0,0,0,.524,1.545,2.593,2.593,0,0,0,2.6.956A2.642,2.642,0,0,0,92.84,19.9a19.144,19.144,0,0,0,.567-3.27V15.364a2.2,2.2,0,0,0-1.187-1.718,3.376,3.376,0,0,0-1.8-.347H47.267c-1.008,0-1,0-1.131-1.021A13.674,13.674,0,0,0,37.476.755,11.252,11.252,0,0,0,33.939,0Z" data-name="Path 1136" transform="translate(-29.85)"/></clipPath></defs><g id="Group_329" clip-path="url(#clip-path)" data-name="Group 329" transform="translate(0)"><rect id="Rectangle_178" width="63.72" height="64.02" fill="#6ba53a" data-name="Rectangle 178" transform="translate(-0.162)"/></g></svg>