<svg xmlns="http://www.w3.org/2000/svg" xmlns:xlink="http://www.w3.org/1999/xlink" width="49.885" height="55.363" viewBox="0 0 49.885 55.363"><defs><clipPath id="clip-path"><path id="Path_1132" fill="#6ba53a" d="M190.005,109.849a2.156,2.156,0,0,0-.767-1.831Z" data-name="Path 1132" transform="translate(-189.238 -108.018)"/></clipPath><clipPath id="clip-path-2"><path id="Path_1133" fill="#6ba53a" d="M196.19,116.332a11.161,11.161,0,0,1-5.657-1.61,21.323,21.323,0,0,1-8.24-8.59,5.62,5.62,0,0,1-.621-4.219,3.245,3.245,0,0,1,1.585-2.017c.466-.265.934-.529,1.412-.767a1.123,1.123,0,0,1,1.463.248c1.081,1.182,2.149,2.371,3.219,3.563.385.423.3.788-.236,1.005s-1.178.427-1.76.659-.733.572-.507,1.188a2.791,2.791,0,0,0,.549.979c1.125,1.237,2.173,2.546,3.407,3.677.081.071.163.145.246.214,1.488,1.266,1.844,1.3,3.5.32.155-.094.305-.193.46-.281a1.15,1.15,0,0,1,1.512.226c1.072,1.184,2.147,2.373,3.209,3.569.352.419.3.8-.216.971a11.118,11.118,0,0,1-3.1.873c-.075,0-.151,0-.224-.01M175.183,97.274a1.023,1.023,0,0,1-.185.1,3.1,3.1,0,0,0-2.35,2.713,2.927,2.927,0,0,1-.13.574c-2.279,5.928-4.457,11.886-6.821,17.792-.061.155-.208.305-.071.539a3.741,3.741,0,0,1,3.012-1q19.276.021,38.551,0h4.048a3.09,3.09,0,0,1,2.114.808c.069.061.122.181.252.118.065-.13-.031-.252-.077-.344-.989-2.32-1.838-4.7-2.741-7.055-1.372-3.573-2.723-7.159-4.1-10.737-.187-.494-.159-1.015-.352-1.51a3.561,3.561,0,0,0-2.3-2Z" data-name="Path 1133" transform="translate(-165.568 -97.274)"/></clipPath><clipPath id="clip-path-3"><path id="Path_1134" fill="#6ba53a" d="M200.426,117.513a15.822,15.822,0,0,0,0-1.614c0-.3.1-.356.383-.352h7.922c.33,0,.385.128.385.409-.02.523-.028,1.042,0,1.561.018.35-.112.417-.429.413h-7.814c-.354,0-.464-.075-.446-.417M168.6,108.954a3.224,3.224,0,0,0-3.451,3.451V121.1a3.209,3.209,0,0,0,3.4,3.423h18.74c.383,0,.474.094.47.47-.018,2.271,0,4.536,0,6.8,0,.344-.077.47-.446.454-.714-.026-1.437,0-2.157,0a4.116,4.116,0,0,0-3.364,1.534.951.951,0,0,1-.853.383q-7.347,0-14.691-.018c-.446,0-.619.061-.594.568.047,1.115.039,2.23,0,3.346-.02.488.11.623.611.619,4.912-.018,9.825,0,14.741,0a.8.8,0,0,1,.743.3,3.961,3.961,0,0,0,3.272,1.569h9.992a3.887,3.887,0,0,0,3.124-1.424,1.2,1.2,0,0,1,1.052-.448h14.636c.456,0,.572-.126.56-.566-.03-1.154-.035-2.271,0-3.4,0-.448-.1-.564-.551-.56-4.949.018-9.9,0-14.853,0a.8.8,0,0,1-.718-.334,3.907,3.907,0,0,0-2.745-1.534,23.911,23.911,0,0,0-2.806-.043c-.383,0-.48-.079-.476-.466,0-2.251.024-4.5,0-6.75,0-.446.136-.521.537-.521h18.742a3.235,3.235,0,0,0,3.516-3.525v-8.482a3.237,3.237,0,0,0-3.555-3.539Z" data-name="Path 1134" transform="translate(-165.15 -108.954)"/></clipPath></defs><g id="Group_332" data-name="Group 332" transform="translate(0)"><g id="Group_321" clip-path="url(#clip-path)" data-name="Group 321" transform="translate(49.018 21.864)"><rect id="Rectangle_174" width=".824" height="1.831" fill="#6ba53a" data-name="Rectangle 174" transform="translate(0 0)"/></g><g id="Group_323" clip-path="url(#clip-path-2)" data-name="Group 323" transform="translate(0.851 0)"><rect id="Rectangle_175" width="48.178" height="21.717" fill="#6ba53a" data-name="Rectangle 175" transform="translate(-0.08 0)"/></g><g id="Group_325" clip-path="url(#clip-path-3)" data-name="Group 325" transform="translate(0 23.769)"><rect id="Rectangle_176" width="49.885" height="31.63" fill="#6ba53a" data-name="Rectangle 176" transform="translate(0 0)"/></g></g></svg>