<svg xmlns="http://www.w3.org/2000/svg" xmlns:xlink="http://www.w3.org/1999/xlink" width="98.669" height="79.182" viewBox="0 0 98.669 79.182">
  <defs>
    <clipPath id="clip-path">
      <rect id="Rectangle_7136" data-name="Rectangle 7136" width="98.669" height="79.182" fill="#6ba53a"/>
    </clipPath>
  </defs>
  <g id="Group_10462" data-name="Group 10462" transform="translate(0)">
    <g id="Group_10461" data-name="Group 10461" transform="translate(0)" clip-path="url(#clip-path)">
      <path id="Path_8514" data-name="Path 8514" d="M27.038,89.551c-2.1-2.176-3.855-4.3-5.923-6.055a7.033,7.033,0,0,1-2.744-6.826c.163-1.173-.012-2.39.04-3.583a1.947,1.947,0,0,0-1.52-2.125,8.016,8.016,0,0,0-.785,2c-.128,1.182-.011,2.388-.036,3.583a14.364,14.364,0,0,1-.223,1.58c-2.432-2.428-4.658-4.682-6.924-6.894-.65-.634-1.408-1.832-2.376-.792-.894.96.328,1.607.926,2.244s1.243,1.24,2.176,2.163c-1.335.262-2.376.439-3.4.676-.74.172-1.957-.169-1.854,1.135.1,1.286,1.249.841,2.009.844a34.33,34.33,0,0,0,3.98-.175,3.23,3.23,0,0,1,2.832,1.049c1.67,1.632,3.442,3.158,5.173,4.728l-.327.567a11.285,11.285,0,0,1-1.184.133c-1.417.015-2.835-.012-4.251.01-.688.011-1.54-.114-1.575.946-.038,1.166.907,1.042,1.614,1.055,2.258.039,4.518,0,6.776.029a2.109,2.109,0,0,1,1.347.345c1.564,1.588,3.05,3.254,4.6,4.932-.24.055-.643.158-1.05.239a28.251,28.251,0,0,1-11.355-.267C7.223,89.885,2.9,86.776,1.275,80.743A27.807,27.807,0,0,1,.4,68.036a9,9,0,0,0,.115-.922c.225-2.524.233-2.632,2.725-2.7a78.5,78.5,0,0,1,9.8.039c5.242.506,9.679,2.64,12.323,7.534a22.607,22.607,0,0,1,2.3,10.651c.029,1.856-.118,3.716-.215,5.572a7.526,7.526,0,0,1-.408,1.346" transform="translate(0 -47.188)" fill="#6ba53a"/>
      <path id="Path_8515" data-name="Path 8515" d="M144.27,153.269c2.489,1.55,4.914,3.217,7.485,4.617,2.524,1.374,3.938,3.584,5.16,6a16.719,16.719,0,0,1,.945,2.6c.324,1.038-.116,1.462-1.185,1.457-2.787-.014-5.574.034-8.361.036q-12.011.01-24.023,0c-.354,0-.709,0-1.06-.03-.912-.078-1.2-.491-.915-1.425a15.944,15.944,0,0,1,8.428-10.012c1.628-.818,3.038-2.063,4.6-3.03a1.8,1.8,0,0,1,1.451-.168,7.616,7.616,0,0,0,6.879-.12,2.919,2.919,0,0,1,.5-.178.991.991,0,0,1,.258,0Z" transform="translate(-89.726 -112.334)" fill="#6ba53a"/>
      <path id="Path_8516" data-name="Path 8516" d="M282.616,97.947c.044-2.215.39-4.113,2.655-5.128a5.512,5.512,0,0,1,4.112-.066,16.2,16.2,0,0,0,4.842,1.115,18.226,18.226,0,0,0,5.364-1.158c1.9-.632,4.408-.447,5.44,1.179a7.281,7.281,0,0,1,1.11,4.316,23.27,23.27,0,0,1-4.523,11.543,3.77,3.77,0,0,1-4.218,1.572,20.926,20.926,0,0,0-6.292.106,3.283,3.283,0,0,1-3.213-1,20.7,20.7,0,0,1-4.242-8.139c-.4-1.432-.693-2.893-1.035-4.341" transform="translate(-207.496 -67.82)" fill="#6ba53a"/>
      <path id="Path_8517" data-name="Path 8517" d="M146.59,88.014c1.186-.086,2.191-.082,3.168-.244A31.792,31.792,0,0,0,161.594,83.4a2.064,2.064,0,0,1,1.715.293c.994.635,1.8,1.579,2.819,2.154a4.768,4.768,0,0,0,2.489.537c1.023-.056,1.346.348,1.189,1.2-.3,1.648-.6,3.268-2.425,4.129-.618.292-.953,1.2-1.393,1.847a50.169,50.169,0,0,1-3.653,5.3c-2.581,2.888-6.235,2.891-8.774-.046a66.819,66.819,0,0,1-4.013-6,5.428,5.428,0,0,0-1.515-1.384,3.081,3.081,0,0,1-1.443-3.42" transform="translate(-107.533 -61.159)" fill="#6ba53a"/>
      <path id="Path_8518" data-name="Path 8518" d="M170.545,50.219c0,.266.012.532,0,.8-.07,1.268-.659,1.641-1.707.893a13.85,13.85,0,0,1-2.918-2.665c-.9-1.154-1.569-.872-2.533-.182a25.65,25.65,0,0,1-12.072,4.66c-1.66.2-2.093-.147-1.988-1.767.361-5.551,2.79-9.965,8.486-11.882,2.506-.843,4.963-.1,7.173,1.37,1.333.885,2.946,1.348,3.83,2.879a12.261,12.261,0,0,1,1.731,5.9" transform="translate(-109.623 -29.161)" fill="#6ba53a"/>
      <path id="Path_8519" data-name="Path 8519" d="M81.205,17.817c-2.565-1.263-2.333-1.17-.858-3.276A32.851,32.851,0,0,1,92.812,3.729a68.514,68.514,0,0,1,8.048-2.9c3.3-1.141,6.728-.769,10.124-.789a28.538,28.538,0,0,1,10.4,2.286,32.927,32.927,0,0,1,15.73,12.432,72.326,72.326,0,0,1,3.59,6.3c.365.669.226,1.113-.7.976a3.123,3.123,0,0,1-2.578-1.9A32.445,32.445,0,0,0,121.9,5.184a30.855,30.855,0,0,0-18.14-2.443C94.08,4.295,86.532,9.409,81.205,17.817" transform="translate(-58.187 0)" fill="#6ba53a"/>
      <path id="Path_8520" data-name="Path 8520" d="M140.927,241.328c0-2.167-.015-4.335.007-6.5.017-1.688.382-2.029,2.029-2.025.973,0,1.948.041,2.919-.011a1.486,1.486,0,0,1,1.762,1.652q.043,6.966,0,13.933a1.515,1.515,0,0,1-1.832,1.709c-.969-.066-1.945,0-2.918-.014-1.548-.015-1.94-.386-1.959-1.976-.027-2.255-.007-4.511,0-6.767" transform="translate(-103.462 -170.91)" fill="#6ba53a"/>
      <path id="Path_8521" data-name="Path 8521" d="M213.071,241.388c0-2.344.03-4.689-.015-7.032-.021-1.066.373-1.553,1.46-1.518,1.237.04,2.477.006,3.715.024a1.215,1.215,0,0,1,1.366,1.391q-.025,7.231,0,14.463a1.232,1.232,0,0,1-1.392,1.38c-1.238.019-2.477-.013-3.715.013-1,.021-1.438-.4-1.424-1.424.035-2.432.011-4.865.01-7.3" transform="translate(-156.425 -170.948)" fill="#6ba53a"/>
      <path id="Path_8522" data-name="Path 8522" d="M243.977,246.739c0-1.77-.016-3.541,0-5.311.014-1.344.459-1.74,1.9-1.771,1.934-.042,2.366.192,2.387,1.638q.079,5.575,0,11.152c-.016,1.336-.552,1.645-2.322,1.593-1.45-.042-1.952-.462-1.965-1.726-.02-1.859-.005-3.717-.007-5.576" transform="translate(-179.123 -175.953)" fill="#6ba53a"/>
      <path id="Path_8523" data-name="Path 8523" d="M122.562,246.934c0,1.767.023,3.533-.007,5.3-.025,1.467-.469,1.823-2.12,1.816s-2.113-.383-2.118-1.815q-.019-5.365,0-10.731c0-1.5.39-1.829,2.063-1.84,1.823-.011,2.161.252,2.185,1.839.027,1.81.006,3.621.006,5.432Z" transform="translate(-86.86 -175.961)" fill="#6ba53a"/>
      <path id="Path_8524" data-name="Path 8524" d="M260.042,188.792a31.647,31.647,0,0,0,8.24-8.62c1.053-1.67,1.942-3.447,2.849-5.2.6-1.163,1.47-.283,2.207-.383.044.472.274,1.027.105,1.4a36.066,36.066,0,0,1-9.436,12.907c-1.872,1.608-1.855,1.627-3.965-.1" transform="translate(-190.922 -128.014)" fill="#6ba53a"/>
      <path id="Path_8525" data-name="Path 8525" d="M82.494,191.258a4.524,4.524,0,0,1-1.254.794,2.012,2.012,0,0,1-1.53-.131,33.415,33.415,0,0,1-9.525-11.993c-.056-.12-.1-.244-.161-.363-.3-.6-1.23-1.23-.237-1.864.872-.557,2.092.087,2.655,1.043a46.245,46.245,0,0,0,3.766,6.014c1.881,2.293,4.12,4.29,6.288,6.5" transform="translate(-50.909 -130.317)" fill="#6ba53a"/>
      <path id="Path_8526" data-name="Path 8526" d="M323.328,65.91c-.332-3.045,1.992-5.167,5.01-5.5.936-.1,1.523.233,1.611,1.272.192,2.28.154,4.5-2.1,5.846a9.322,9.322,0,0,1-2.817,1.062,1.307,1.307,0,0,1-1.7-1.351c-.028-.44,0-.883,0-1.325" transform="translate(-237.364 -44.337)" fill="#6ba53a"/>
      <path id="Path_8527" data-name="Path 8527" d="M175.749,260.985c1.235,0,2.471.035,3.7-.012.85-.033,1.138.368,1.015,1.121-.119.726.427,1.877-.964,1.9q-3.9.06-7.806-.014c-1.389-.027-.829-1.176-.957-1.9-.141-.8.235-1.113,1.039-1.091,1.322.038,2.646.01,3.969.01v-.013" transform="translate(-125.337 -191.604)" fill="#6ba53a"/>
      <path id="Path_8528" data-name="Path 8528" d="M263.828,262.285,265,261.042c.415.5,1.159,1,1.154,1.49s-.745,1-1.163,1.5l-1.158-1.748" transform="translate(-193.702 -191.657)" fill="#6ba53a"/>
      <path id="Path_8529" data-name="Path 8529" d="M108.527,262.333l-.975,1.742c-.394-.5-1.06-.986-1.1-1.516-.033-.442.667-.939,1.042-1.412l1.033,1.186" transform="translate(-78.156 -191.734)" fill="#6ba53a"/>
    </g>
  </g>
</svg>
