<svg xmlns="http://www.w3.org/2000/svg" xmlns:xlink="http://www.w3.org/1999/xlink" width="38.446" height="82.105" viewBox="0 0 38.446 82.105"><defs><clipPath id="clip-path"><path id="Path_1127" fill="#6ba53a" d="M306.915,99.579a49.1,49.1,0,0,0-11.587,2.513,3.436,3.436,0,0,0-2.452,3.052c-.256,2.12-.464,4.241-.7,6.363q-.543,4.686-1.046,9.375c-.246,2.228-.541,4.448-.694,6.683,0,.026,0,.053,0,.081A3.017,3.017,0,0,0,293.3,130.8h.008a3.1,3.1,0,0,0,3.35-2.833c.232-2.011.444-4.021.669-6.032.537-4.579,1.042-9.166,1.543-13.75.051-.46.087-.818.629-.794s.252.513.252.759c0,6.144-.037,12.285,0,18.431.02,3.236-.389,6.445-.611,9.666-.258,3.75-.6,7.5-.9,11.251q-.36,4.46-.733,8.934c-.061.769-.132,1.543-.2,2.312-.22,2.589.383,3.62,2.851,4.882l1.8-.02a3.467,3.467,0,0,0,2.908-2.623,12.239,12.239,0,0,0,.366-2.851c.2-3.006.472-5.991.7-9.009.291-3.779.617-7.546.914-11.323.116-1.463.248-2.92.344-4.381.029-.464.12-.865.757-.726a2.805,2.805,0,0,0,1.274,0c.517-.114.637.132.678.594q.58,6.7,1.081,13.394c.332,4.3.714,8.606,1.005,12.914.155,2.3,1.252,3.634,3.264,4.021h1.6c1.76-.67,2.941-1.795,2.941-3.805,0-.718-.069-1.439-.128-2.157q-.449-5.479-.891-11.009c-.23-3.032-.527-6.078-.735-9.094-.242-3.651-.718-7.275-.718-10.94V107.381c1.091-.075.891.753.954,1.313.311,2.647.58,5.3.871,7.953.4,3.6.845,7.2,1.217,10.8a3.209,3.209,0,0,0,2.513,3.262c.287.092.38.175.38.466.057,1.066.067,1.066-1.034,1.066h-.961a1.378,1.378,0,0,0-1.508,1.559v18.431c0,1,.472,1.542,1.449,1.542q3.126.061,6.252,0a1.292,1.292,0,0,0,1.4-1.473V133.7a1.333,1.333,0,0,0,.008-.22,1.291,1.291,0,0,0-1.351-1.231c-.533-.026-1.07,0-1.6,0-.171,0-.33.14-.5-.136a3.878,3.878,0,0,1,.281-2.2,3.1,3.1,0,0,0,.954-2.753c-.179-1.736-.35-3.506-.547-5.254q-.934-8.349-1.878-16.691a3.379,3.379,0,0,0-1.74-2.786,12.541,12.541,0,0,0-2.475-.869,43.929,43.929,0,0,0-9.756-1.95c-.236-.02-.47-.112-.621.185a3.831,3.831,0,0,0-.619,2.328q.983,7.17,1.882,14.347a2.065,2.065,0,0,1-.055,1.473c-.775,1.268-1.49,2.574-2.283,3.962-.83-1.447-1.634-2.82-2.4-4.212a1.243,1.243,0,0,1-.024-.71c.619-4.756,1.227-9.509,1.88-14.267a3.774,3.774,0,0,0-.472-2.806.593.593,0,0,0-.537-.338.468.468,0,0,0-.092.008" data-name="Path 1127" transform="translate(-290.428 -99.571)"/></clipPath><clipPath id="clip-path-2"><path id="Path_1128" fill="#6ba53a" d="M301.528,90.935a7.943,7.943,0,0,0-6.089,7.733,10.785,10.785,0,0,0,3.586,7.68,6.266,6.266,0,0,0,8.63,0,9.851,9.851,0,0,0,2.112-2.588c1.587-2.92,2.116-5.887.458-8.954a8.02,8.02,0,0,0-6.917-4.1,6.854,6.854,0,0,0-1.781.232" data-name="Path 1128" transform="translate(-295.439 -90.703)"/></clipPath></defs><g id="Group_333" data-name="Group 333" transform="translate(0)"><g id="Group_311" clip-path="url(#clip-path)" data-name="Group 311" transform="translate(0 18.046)"><rect id="Rectangle_169" width="38.524" height="64.132" fill="#6ba53a" data-name="Rectangle 169" transform="translate(-0.076 -0.073)"/></g><g id="Group_313" clip-path="url(#clip-path-2)" data-name="Group 313" transform="translate(10.196 0)"><rect id="Rectangle_170" width="16.5" height="17.944" fill="#6ba53a" data-name="Rectangle 170" transform="translate(-0.054 0)"/></g></g></svg>