<svg xmlns="http://www.w3.org/2000/svg" xmlns:xlink="http://www.w3.org/1999/xlink" width="62.729" height="62.724" viewBox="0 0 62.729 62.724"><defs><clipPath id="clip-path"><path id="Path_1129" fill="#6ba53a" d="M298.867,17.992c-.922-.92-.922-.924.03-1.874.147-.144.3-.281.458-.431.085.073.155.124.214.177.519.523,1.032,1.048,1.559,1.559.163.163.193.263.026.456h-.006c-.564.663-.836.989-1.127.989s-.574-.3-1.154-.875M292.137,2.78c.191.2.328.35.472.494q1.831,1.835,3.661,3.669c.153.153.358.256.3.564-.322,1.8-.629,3.6-.91,5.407-.055.34-.2.429-.5.476-1.642.265-3.28.523-4.906.836a1.216,1.216,0,0,1-1.247-.427c-1.14-1.168-2.312-2.338-3.478-3.506-.142-.14-.248-.342-.478-.391a10.22,10.22,0,0,0-.452,5.026,11.1,11.1,0,0,0,14.591,8.9.913.913,0,0,1,1.131.277Q307.5,31.314,314.7,38.5c1.98,1.98,3.96,3.962,5.993,6,.094-.147.157-.234.207-.324a14.993,14.993,0,0,1,5.4-5.454c.435-.256.46-.389.1-.726-1.878-1.844-3.72-3.726-5.6-5.566-.348-.344-.319-.509,0-.836q7.97-7.933,15.912-15.9a1.1,1.1,0,0,1,.873-.389c.712.012,1.422.012,2.133.012.655,0,1.312,0,1.978.008a.632.632,0,0,0,.645-.366q2.3-4.188,4.644-8.364c.208-.313.128-.472-.122-.7q-1.716-1.685-3.4-3.4a.5.5,0,0,0-.692-.134.332.332,0,0,0-.045.035q-4.142,2.335-8.307,4.615a.664.664,0,0,0-.391.688c.024,1.368,0,2.727,0,4.107a1.02,1.02,0,0,1-.342.822q-7.982,7.97-15.948,15.971c-.3.3-.456.346-.777.018q-5.317-5.363-10.678-10.68A.745.745,0,0,1,306.1,17a10.646,10.646,0,0,0,.281-6.445A11.081,11.081,0,0,0,296.7,2.243a10.1,10.1,0,0,0-4.558.537" data-name="Path 1129" transform="translate(-284.469 -2.18)"/></clipPath><clipPath id="clip-path-2"><path id="Path_1130" fill="#6ba53a" d="M315.127,39.071q-2.628-1.358-5.293-2.645a.611.611,0,0,1-.391-.674c.024-.865,0-1.726,0-2.593V30.632a.572.572,0,0,1,.366-.625q2.686-1.313,5.348-2.674a.722.722,0,0,1,.751,0q2.634,1.346,5.291,2.645a.58.58,0,0,1,.389.613c0,1.724-.018,3.453,0,5.179a.629.629,0,0,1-.419.69q-2.631,1.285-5.236,2.611a.781.781,0,0,1-.806,0M302.37,33.1c0,.043,0,.085,0,.126a13.144,13.144,0,0,0,26.288.126v-.118a13.1,13.1,0,0,0-13.044-13.16h-.059l-.079,0A13.106,13.106,0,0,0,302.37,33.1" data-name="Path 1130" transform="translate(-302.369 -20.077)"/></clipPath><clipPath id="clip-path-3"><path id="Path_1131" fill="#6ba53a" d="M291.791,44c-.889-.9-.891-.9,0-1.789q4.893-4.893,9.772-9.8c.354-.358.533-.34.869,0,.954,1.032.971,1-.018,1.982v.012L292.729,44.1c-.132.132-.273.252-.5.464a7.048,7.048,0,0,0-.44-.562m-3.136-3.114c-.8-.81-.8-.806,0-1.608q4.939-4.939,9.866-9.882c.354-.36.533-.344.869,0,.963,1.005.979.989,0,1.978l-9.695,9.695c-.144.124-.285.25-.5.452v.012c-.191-.226-.346-.45-.537-.647M303.4,18.826c-.779.847-1.624,1.654-2.454,2.46a.516.516,0,0,0-.149.655c.23.584.391,1.188.6,1.789a1.181,1.181,0,0,1-1.61,1.573c-.533-.179-1.074-.346-1.6-.549a.739.739,0,0,0-.928.212c-1.559,1.583-3.116,3.116-4.674,4.7-2.11,2.118-4.3,4.164-6.3,6.388a6.642,6.642,0,0,0-1.129,7.574,6.839,6.839,0,0,0,6.085,4.251,7.489,7.489,0,0,0,5.676-2.271q4.728-4.74,9.469-9.471c.464-.466,1.168-.877,1.292-1.42s-.322-1.254-.525-1.893c-.031-.1-.069-.2-.1-.3a1.221,1.221,0,0,1,.25-1.349,1.2,1.2,0,0,1,1.292-.218c.619.191,1.243.391,1.846.619a.508.508,0,0,0,.655-.149c.779-.816,1.589-1.628,2.415-2.409.265-.277.3-.431-.012-.733-.932-.885-1.807-1.825-2.727-2.707-.366-.346-.444-.549-.024-.92.663-.584,1.256-1.252,1.891-1.862.226-.216.273-.346.022-.588q-1.273-1.227-2.5-2.5c-.242-.248-.391-.2-.588.02-.617.637-1.266,1.241-1.866,1.888-.315.34-.515.413-.877.024-.887-.954-1.842-1.85-2.753-2.786-.136-.138-.242-.232-.36-.232a.472.472,0,0,0-.322.2" data-name="Path 1131" transform="translate(-284.461 -18.629)"/></clipPath></defs><g id="Group_331" data-name="Group 331" transform="translate(0)"><g id="Group_315" clip-path="url(#clip-path)" data-name="Group 315" transform="translate(0.015 0)"><rect id="Rectangle_171" width="62.867" height="42.317" fill="#6ba53a" data-name="Rectangle 171" transform="translate(-0.142 0)"/></g><g id="Group_317" clip-path="url(#clip-path-2)" data-name="Group 317" transform="translate(36.441 36.42)"><rect id="Rectangle_172" width="26.329" height="26.343" fill="#6ba53a" data-name="Rectangle 172" transform="translate(-0.007 0)"/></g><g id="Group_319" clip-path="url(#clip-path-3)" data-name="Group 319" transform="translate(0 33.473)"><rect id="Rectangle_173" width="29.863" height="29.251" fill="#6ba53a" data-name="Rectangle 173" transform="translate(-0.508 0)"/></g></g></svg>