<svg xmlns="http://www.w3.org/2000/svg" width="79.707" height="81.08" viewBox="0 0 79.707 81.08">
  <g id="Group_11833" data-name="Group 11833" transform="translate(1 1)">
    <g id="Group_101" data-name="Group 101" transform="translate(0)">
      <g id="Group_99" data-name="Group 99" transform="translate(0 0)">
        <path id="Path_23" data-name="Path 23" d="M26.378,0a11.106,11.106,0,0,0-5.02,1.2,12.7,12.7,0,0,0-4.089,3.3,17.264,17.264,0,0,0-3.713,11.075c0,.576.025,1.153.075,1.72a14.441,14.441,0,0,0-1.456.35A15.1,15.1,0,0,0,7.27,20.174a17.555,17.555,0,0,0-3.88,4.187A19.9,19.9,0,0,0,.9,29.7,21.589,21.589,0,0,0,0,35.9,20.57,20.57,0,0,0,4.195,48.542c.3.391.626.771.959,1.134-.258.441-.5.894-.723,1.351a22.493,22.493,0,0,0-2.174,9.787A23.043,23.043,0,0,0,3.366,67.96a19.213,19.213,0,0,0,3.048,5.852,14.348,14.348,0,0,0,4.4,3.844,10.985,10.985,0,0,0,10.819,0c1.644-.906,20.2-10.182,21.477-11.829a19.188,19.188,0,0,0,3.048-5.85c.736-2.26-15.971,3.318-15.971.836a22.416,22.416,0,0,0-2.174-9.783c-.224-.458-.467-.911-.726-1.35.33-.357.652-.737.962-1.133A20.613,20.613,0,0,0,32.442,35.9a21.522,21.522,0,0,0-.693-5.456c-.147-.569-.323-1.143-.526-1.711a12.7,12.7,0,0,0,1.39-.775,14.073,14.073,0,0,0,4.838-5.494A17.114,17.114,0,0,0,38.2,9.108a15.232,15.232,0,0,0-2.748-4.742,12.9,12.9,0,0,0-4.081-3.194A11.244,11.244,0,0,0,26.378,0ZM16.221,78.1a11.666,11.666,0,0,1-9.181-4.945A20.171,20.171,0,0,1,3.1,60.814a21.389,21.389,0,0,1,2.065-9.307c.268-.551.567-1.1.888-1.619l.219-.356-.281-.292a16.933,16.933,0,0,1-1.171-1.353A19.5,19.5,0,0,1,.841,35.9,19.622,19.622,0,0,1,4.055,24.96a15.512,15.512,0,0,1,8.329-6.375,13.588,13.588,0,0,1,1.768-.4l.416-.064-.055-.484a18.41,18.41,0,0,1-.116-2.071,16.2,16.2,0,0,1,3.478-10.4,10.974,10.974,0,0,1,8.5-4.194,11.158,11.158,0,0,1,8.484,4.08,15.082,15.082,0,0,1,3.511,9.857,15.675,15.675,0,0,1-1.646,7.052A13.155,13.155,0,0,1,32.205,27.1a11.678,11.678,0,0,1-1.686.9l-.421.181.183.476a18.868,18.868,0,0,1,.663,2.065A20.4,20.4,0,0,1,31.6,35.9a19.544,19.544,0,0,1-3.977,11.994,17,17,0,0,1-1.175,1.353l-.283.292.221.358c.322.521.622,1.066.892,1.619a21.312,21.312,0,0,1,2.065,9.3c0,4.682,15.681,1.083,13.139,4.36C40.015,68.364,19.673,78.1,16.221,78.1Z" fill="#6ba439" stroke="#fff" stroke-width="2"/>
      </g>
      <g id="Group_100" data-name="Group 100" transform="translate(31.528 0)">
        <path id="Path_23-2" data-name="Path 23" d="M19.8,0a11.106,11.106,0,0,1,5.02,1.2,12.7,12.7,0,0,1,4.089,3.3,17.264,17.264,0,0,1,3.713,11.075c0,.576-.025,1.153-.075,1.72a14.442,14.442,0,0,1,1.456.35,15.1,15.1,0,0,1,4.906,2.536,17.555,17.555,0,0,1,3.88,4.187A19.9,19.9,0,0,1,45.281,29.7a21.589,21.589,0,0,1,.9,6.2,20.57,20.57,0,0,1-4.195,12.645c-.3.391-.626.771-.959,1.134.258.441.5.894.723,1.351a22.493,22.493,0,0,1,2.174,9.787,23.043,23.043,0,0,1-1.109,7.146,19.213,19.213,0,0,1-3.048,5.852,14.348,14.348,0,0,1-4.4,3.844,10.985,10.985,0,0,1-10.819,0c-1.644-.906-20.2-10.182-21.477-11.829a19.188,19.188,0,0,1-3.048-5.85C-.712,57.717,16,63.3,16,60.814a22.416,22.416,0,0,1,2.174-9.783c.224-.458.467-.911.726-1.35-.33-.357-.652-.737-.962-1.133A20.613,20.613,0,0,1,13.738,35.9a21.522,21.522,0,0,1,.693-5.456c.147-.569.323-1.143.526-1.711a12.7,12.7,0,0,1-1.39-.775,14.073,14.073,0,0,1-4.838-5.494A17.114,17.114,0,0,1,7.975,9.108a15.232,15.232,0,0,1,2.748-4.742A12.9,12.9,0,0,1,14.8,1.172,11.244,11.244,0,0,1,19.8,0ZM29.959,78.1a11.666,11.666,0,0,0,9.181-4.945,20.171,20.171,0,0,0,3.942-12.344,21.389,21.389,0,0,0-2.065-9.307c-.268-.551-.567-1.1-.888-1.619l-.219-.356.281-.292a16.932,16.932,0,0,0,1.171-1.353A19.5,19.5,0,0,0,45.339,35.9,19.622,19.622,0,0,0,42.125,24.96,15.512,15.512,0,0,0,33.8,18.584a13.587,13.587,0,0,0-1.768-.4l-.416-.064.055-.484a18.409,18.409,0,0,0,.116-2.071A16.2,16.2,0,0,0,28.3,5.171,10.974,10.974,0,0,0,19.8.977a11.158,11.158,0,0,0-8.484,4.08,15.082,15.082,0,0,0-3.511,9.857,15.675,15.675,0,0,0,1.646,7.052A13.155,13.155,0,0,0,13.974,27.1a11.678,11.678,0,0,0,1.686.9l.421.181-.183.476a18.87,18.87,0,0,0-.663,2.065,20.4,20.4,0,0,0-.657,5.174,19.544,19.544,0,0,0,3.977,11.994,17,17,0,0,0,1.175,1.353l.283.292-.221.358c-.322.521-.622,1.066-.892,1.619a21.312,21.312,0,0,0-2.065,9.3c0,4.682-15.681,1.083-13.139,4.36C6.165,68.364,26.506,78.1,29.959,78.1Z" transform="translate(0)" fill="#6ba439" stroke="#fff" stroke-width="2"/>
      </g>
      <rect id="Rectangle_105" data-name="Rectangle 105" width="35.484" height="52.813" transform="translate(22.712 15.197)" fill="#6ba53a"/>
      <rect id="Rectangle_106" data-name="Rectangle 106" width="3.301" height="53.638" transform="translate(37.566 14.371)" fill="#fff"/>
    </g>
    <path id="Path_27" data-name="Path 27" d="M37.98,3a10.983,10.983,0,0,1,4.275,21.1,10.982,10.982,0,0,1-8.55-20.233A10.908,10.908,0,0,1,37.98,3Zm0,20.983A10,10,0,0,0,45.052,6.908,10,10,0,1,0,30.907,21.052,9.928,9.928,0,0,0,37.98,23.983Z" transform="translate(28.748 2.599)" fill="#1a6465" stroke="#fff" stroke-width="2"/>
  </g>
</svg>
