<svg xmlns="http://www.w3.org/2000/svg" width="80.607" height="78.419" viewBox="0 0 80.607 78.419">
  <g id="Group_93" data-name="Group 93" transform="translate(1.203 1.211)">
    <g id="Group_92" data-name="Group 92" transform="translate(0 0)">
      <g id="Group_91" data-name="Group 91" transform="translate(0 0)">
        <g id="Group_90" data-name="Group 90">
          <g id="Group_89" data-name="Group 89">
            <g id="Group_86" data-name="Group 86" transform="translate(0.797 0.789)">
              <path id="Path_247" data-name="Path 247" d="M5.247,48.637A25.18,25.18,0,0,1,29.877,28.68h8.755A25.18,25.18,0,0,0,63.2,9.016" transform="translate(4.049 8.529)" fill="none" stroke="#fff" stroke-width="4" fill-rule="evenodd"/>
              <path id="Path_248" data-name="Path 248" d="M9.755,57.908a8.758,8.758,0,1,1-6.19,2.565A8.72,8.72,0,0,1,9.755,57.908ZM68.852,1a8.758,8.758,0,1,1-6.19,2.565A8.72,8.72,0,0,1,68.852,1Z" transform="translate(-1 -1)" fill="none" stroke="#fff" stroke-width="4" fill-rule="evenodd"/>
            </g>
            <g id="Group_87" data-name="Group 87" transform="translate(48.153 48.153)">
              <path id="Path_249" data-name="Path 249" d="M0,0H4.378V35.021H0Z" transform="translate(24.763 0) rotate(45)" fill="#fcfcfc" fill-rule="evenodd"/>
              <path id="Path_250" data-name="Path 250" d="M0,0H4.378V35.021H0Z" transform="translate(27.859 24.763) rotate(135)" fill="#fcfcfc" fill-rule="evenodd"/>
            </g>
            <g id="Group_88" data-name="Group 88">
              <path id="Path_251" data-name="Path 251" d="M0,0H4.378V35.021H0Z" transform="translate(24.763 0) rotate(45)" fill="#fcfcfc" fill-rule="evenodd"/>
              <path id="Path_252" data-name="Path 252" d="M0,0H4.378V35.021H0Z" transform="translate(27.859 24.763) rotate(135)" fill="#fcfcfc" fill-rule="evenodd"/>
            </g>
          </g>
        </g>
      </g>
    </g>
  </g>
</svg>
