<svg id="Group_8" data-name="Group 8" xmlns="http://www.w3.org/2000/svg" xmlns:xlink="http://www.w3.org/1999/xlink" width="80.542" height="80.406" viewBox="0 0 80.542 80.406">
  <defs>
    <clipPath id="clip-path">
      <rect id="Rectangle_9" data-name="Rectangle 9" width="80.542" height="80.406" fill="#6ba53a"/>
    </clipPath>
  </defs>
  <g id="Group_7" data-name="Group 7" clip-path="url(#clip-path)">
    <path id="Path_3" data-name="Path 3" d="M56.848,47.563c1.946-.778,3.687-1.415,5.362-2.192a1.7,1.7,0,0,0,.685-1.278c.135-3.432.111-3.433,3.6-3.432,2.427,0,4.855-.013,7.282.005,1.651.012,2.122.491,2.173,2.115.073,2.341.073,2.341,2.293,3.172a2.2,2.2,0,0,1,.395.164c1.988,1.233,3.831,1.837,5.469-.635.5-.755,1.485-.523,2.148.129q3.409,3.355,6.782,6.746c.887.9.658,1.754-.164,2.613-1.751,1.829-1.733,1.846-.72,4.091a3.829,3.829,0,0,1,.336.786c.417,2.127,1.41,3.329,3.851,2.893,1.112-.2,1.706.638,1.705,1.792,0,3.046.015,6.092-.008,9.138-.011,1.449-.534,2.08-2.016,1.918-1.952-.214-3.061.4-3.336,2.383a1.86,1.86,0,0,1-.322.789c-1.315,1.848-1.344,3.424.7,4.854.88.615.73,1.608-.025,2.37q-3.318,3.345-6.672,6.655c-.95.94-1.826.71-2.727-.152-1.792-1.715-1.811-1.7-4.082-.674a2.839,2.839,0,0,1-.522.228c-2.187.479-3.686,1.387-3.155,4.076.183.927-.626,1.552-1.649,1.556-3.189.011-6.378.017-9.567,0a1.581,1.581,0,0,1-1.713-1.96c.269-1.977-.386-3.093-2.426-3.419a5.147,5.147,0,0,1-2.075-.921c-1.1-.784-1.786-.43-2.623.465C54,93.8,53.6,93.748,51.713,91.858c-1.851-1.851-3.713-3.691-5.558-5.548-1.223-1.232-1.211-1.862.016-3.113a10.078,10.078,0,0,1,.916-.9,1.176,1.176,0,0,0,.311-1.712,33.186,33.186,0,0,1-1.655-3.939,1.3,1.3,0,0,0-1.426-1.03c-3.486-.058-3.485-.087-3.485-3.628,0-2.38-.008-4.76.006-7.139.01-1.66.469-2.115,2.11-2.157a5.63,5.63,0,0,1,1,0c1.088.169,1.592-.277,1.906-1.347a21.787,21.787,0,0,1,1.566-3.666,1.184,1.184,0,0,0-.262-1.605c-2.464-2.579-2.447-2.595.077-5.114,1.617-1.614,3.228-3.234,4.851-4.842,1.437-1.423,1.994-1.423,3.43,0,.471.468.906.973,1.333,1.436M44.1,65.717v6.772c.584,0,1.054,0,1.523,0,2.129.015,2.153.107,2.818,2.212a31.856,31.856,0,0,0,1.785,4.5c1.384,2.8,1.432,2.777-.728,5.136-.119.131-.182.312-.136.23l4.721,4.844c.3-.375.663-.816,1.019-1.26.941-1.172,1.905-1.143,3.236-.451a43.27,43.27,0,0,0,6.039,2.465c1.171.4,1.789.969,1.707,2.231-.042.651-.007,1.306-.007,2.023H72.8c0-.593,0-1.061,0-1.529.015-2.152.085-2.162,2.2-2.807a28.877,28.877,0,0,0,4.249-1.631c3.106-1.516,3.084-1.559,5.609.741.06.055.171.055-.113-.028L89.687,84.4c-.443-.376-.96-.8-1.457-1.24a1.9,1.9,0,0,1-.392-2.544c1.015-2.187,1.907-4.434,2.773-6.686a1.855,1.855,0,0,1,1.862-1.441c.782,0,1.563,0,2.335,0v-6.66c-.6,0-1.106,0-1.616,0-2-.017-2.119-.18-2.732-2.144a25.138,25.138,0,0,0-1.706-4.373c-1.8-3.365-1.847-2.753.753-5.5.057-.061.061-.173.082-.238L84.7,48.711a6.716,6.716,0,0,1-.8,1.313c-1.436,1.486-1.634,1.4-3.433.518a43.11,43.11,0,0,0-5.787-2.348c-1.284-.41-2-.972-1.883-2.379.051-.6.009-1.212.009-1.889H66.143c-.025.541-.057.961-.061,1.382-.026,2.3-.07,2.279-2.224,2.936a28.968,28.968,0,0,0-4.373,1.7c-2.921,1.443-2.9,1.491-5.376-.748a3.736,3.736,0,0,0-.685-.3c-.619.72-1.256,1.555-1.992,2.292-.761.763-1.618,1.432-2.476,2.179.607.641.922.987,1.251,1.319,1.513,1.526,1.5,1.684.491,3.551a16.055,16.055,0,0,0-1.752,3.885c-.595,2.631-1.523,4.559-4.845,3.59" transform="translate(-29.169 -29.045)" fill="#6ba53a"/>
    <path id="Path_4" data-name="Path 4" d="M3.124,39.346A38.154,38.154,0,0,0,10,61.557a1.677,1.677,0,0,0,2.292.822A6.446,6.446,0,0,1,19.963,65.5a6.531,6.531,0,0,1-1.407,8.064,6.676,6.676,0,0,1-8.313.376,6.444,6.444,0,0,1-2.1-7.894,1.819,1.819,0,0,0-.291-2.151C-9.971,39.913,4.2,5.2,33.7.527A40.816,40.816,0,0,1,47.464.645a3.3,3.3,0,0,1,1.8.95,1.561,1.561,0,0,1-.05,1.541,2.43,2.43,0,0,1-1.717.638c-2.179-.13-4.347-.566-6.524-.6A37.092,37.092,0,0,0,3.537,34.755c-.274,1.78-.327,3.6-.414,4.592M14.233,72.065a3.472,3.472,0,0,0,3.4-3.486,3.547,3.547,0,0,0-3.525-3.388A3.508,3.508,0,0,0,10.721,68.7a3.437,3.437,0,0,0,3.512,3.362" transform="translate(0 0)" fill="#6ba53a"/>
    <path id="Path_5" data-name="Path 5" d="M118.012,93.014c-2.233-.238-4.456-.439-6.669-.72-1.946-.248-2.664-.912-2.426-2.084.215-1.062,1.03-1.339,2.977-1.016A36.434,36.434,0,0,0,135.4,85.41,36.945,36.945,0,0,0,148.526,31.59c-.71-1.02-1.242-1.579-2.715-1.073a6.342,6.342,0,0,1-7.49-3.224,6.518,6.518,0,0,1,1.505-8.044,6.664,6.664,0,0,1,8.2-.368,6.4,6.4,0,0,1,2.222,7.74,2.153,2.153,0,0,0,.352,2.523c17.648,23.864,3.375,58.645-25.914,63.158-2.2.34-4.437.478-6.674.712M144.194,20.8a3.478,3.478,0,0,0-3.508,3.38,3.544,3.544,0,0,0,3.418,3.494,3.505,3.505,0,0,0,3.493-3.406,3.433,3.433,0,0,0-3.4-3.468" transform="translate(-77.778 -12.607)" fill="#6ba53a"/>
    <path id="Path_6" data-name="Path 6" d="M86.434,263.745c-.424-.565-1.086-1.082-1.215-1.708a1.337,1.337,0,0,1,1.389-1.593c.972-.049,1.732.529,1.6,1.52-.085.628-.726,1.18-1.118,1.767l-.654.014" transform="translate(-60.858 -186.059)" fill="#6ba53a"/>
    <path id="Path_7" data-name="Path 7" d="M188.21,9.073c.41.572,1.044,1.1,1.175,1.728a1.322,1.322,0,0,1-1.395,1.581,1.381,1.381,0,0,1-1.6-1.545c.08-.625.756-1.173,1.165-1.756l.651-.009" transform="translate(-133.15 -6.482)" fill="#6ba53a"/>
    <path id="Path_8" data-name="Path 8" d="M95.6,108.1a12.969,12.969,0,1,1,12.991,12.962A12.927,12.927,0,0,1,95.6,108.1m22.78-.051a9.812,9.812,0,1,0-9.712,9.867,9.781,9.781,0,0,0,9.712-9.867" transform="translate(-68.296 -67.987)" fill="#4e5f60"/>
  </g>
</svg>
