<svg xmlns="http://www.w3.org/2000/svg" width="78.95" height="69.192" viewBox="0 0 78.95 69.192">
  <g id="Group_15" data-name="Group 15" transform="translate(0.4)">
    <g id="Group_14" data-name="Group 14">
      <g id="Group_13" data-name="Group 13">
        <g id="Group_12" data-name="Group 12">
          <g id="Group_11" data-name="Group 11">
            <g id="Group_9" data-name="Group 9">
              <path id="Path_7" data-name="Path 7" d="M42.225,65.645H0V1H.586V65.06H41.64V50.691h.586Z" transform="translate(1.6 1.547)" fill="#fff" stroke="#fff" stroke-width="4"/>
              <path id="Path_8" data-name="Path 8" d="M0,0H9.464V3.785H0ZM17.034,0H28.391V3.785H17.034ZM35.962,0h9.464V3.785H35.962Z" fill="#fff" fill-rule="evenodd"/>
              <path id="Path_9" data-name="Path 9" d="M0,0H9.464V3.785H0Z" transform="translate(45.425) rotate(90)" fill="#fff" fill-rule="evenodd"/>
              <path id="Path_10" data-name="Path 10" d="M0,0H7.571V3.785H0Z" transform="translate(45.425 17.034) rotate(90)" fill="#fff" fill-rule="evenodd"/>
              <path id="Ellipse_1" data-name="Ellipse 1" d="M1.2-1A2.2,2.2,0,1,1-1,1.2,2.2,2.2,0,0,1,1.2-1Zm0,3.807A1.611,1.611,0,1,0-.414,1.2,1.612,1.612,0,0,0,1.2,2.807Z" transform="translate(21.498 53.708)" fill="#fff"/>
            </g>
            <g id="Group_10" data-name="Group 10" transform="translate(28.212 8.748)">
              <path id="Path_11" data-name="Path 11" d="M7.864,44.768,0,36.9V.142H.586v36.52L7.864,43.94l7.278-7.278V0h.586V36.9Z" transform="translate(31.656 5.438) rotate(45)" fill="#fff" stroke="#fff" stroke-width="3"/>
              <path id="Path_12" data-name="Path 12" d="M7.864,0a7.86,7.86,0,0,1,5.56,13.424A7.863,7.863,0,1,1,4.8.618,7.812,7.812,0,0,1,7.864,0Zm0,15.142A7.277,7.277,0,0,0,13.009,2.718,7.277,7.277,0,1,0,2.718,13.009,7.223,7.223,0,0,0,7.864,15.142Z" transform="translate(37.096 0) rotate(45)" fill="#fff" stroke="#fff" stroke-width="3"/>
            </g>
          </g>
        </g>
      </g>
    </g>
  </g>
</svg>
