<svg xmlns="http://www.w3.org/2000/svg" width="91.292" height="98.524" viewBox="0 0 91.292 98.524"><g id="Group_103" data-name="Group 103" transform="translate(0)"><path id="Path_85" fill="#fff" d="M306.886,41.895a1.113,1.113,0,0,1-.787-.325l-2.454-2.454a1.113,1.113,0,0,1,0-1.575l2.454-2.454a1.113,1.113,0,0,1,1.575,0l2.447,2.454a1.113,1.113,0,0,1,0,1.575l-2.454,2.454A1.114,1.114,0,0,1,306.886,41.895Zm-.872-3.567.872.872.872-.872-.872-.872Z" data-name="Path 85" transform="translate(-247.138 -34.76)"/><path id="Path_86" fill="#fff" d="M369.6,411.579a1.113,1.113,0,0,1-.788-.325l-2.454-2.454a1.113,1.113,0,0,1,0-1.575l2.454-2.454a1.113,1.113,0,0,1,1.575,0l2.454,2.454a1.113,1.113,0,0,1,0,1.575l-2.454,2.454A1.114,1.114,0,0,1,369.6,411.579Zm-.872-3.567.872.872.872-.872-.872-.872Z" data-name="Path 86" transform="translate(-295.888 -322.13)"/><path id="Path_87" fill="#fff" d="M94.231,452.337a1.113,1.113,0,0,1-1.113-1.113,1.341,1.341,0,0,0-1.34-1.34,1.114,1.114,0,0,1,0-2.227,1.342,1.342,0,0,0,1.34-1.339,1.114,1.114,0,1,1,2.227,0,1.341,1.341,0,0,0,1.34,1.34,1.114,1.114,0,0,1,0,2.227,1.341,1.341,0,0,0-1.34,1.339,1.113,1.113,0,0,1-1.114,1.113Z" data-name="Path 87" transform="translate(-81.833 -353.814)"/><path id="Path_88" fill="#fcfcfc" d="M137.564,405.939a1.113,1.113,0,0,1-1.113-1.113,1.341,1.341,0,0,0-1.34-1.34,1.114,1.114,0,1,1,0-2.227,1.341,1.341,0,0,0,1.34-1.34,1.114,1.114,0,0,1,2.227,0,1.341,1.341,0,0,0,1.34,1.34,1.114,1.114,0,0,1,0,2.227,1.342,1.342,0,0,0-1.34,1.339,1.113,1.113,0,0,1-1.114,1.113Z" data-name="Path 88" transform="translate(-115.518 -317.745)"/><path id="Path_90" fill="#fff" d="M220.656,393.055H195.4a1.113,1.113,0,0,1-1.079-1.386l3.975-15.752a1.113,1.113,0,0,1,2.159.545l-3.632,14.366h22.4l-3.657-14.495a1.113,1.113,0,0,1,2.159-.545l4.007,15.879a1.113,1.113,0,0,1-1.079,1.386Z" data-name="Path 90" transform="translate(-162.383 -299.2)"/><g id="Group_8" data-name="Group 8" transform="translate(51.233 25.919)"><path id="Path_94" fill="#fff" d="M312.022,195.928H289.535l-.3-.628a23.5,23.5,0,0,1-1.505-4l-5.009-1.427a2.24,2.24,0,0,1-1.617-2.141V182.3a2.235,2.235,0,0,1,1.617-2.141l5.009-1.428a23.484,23.484,0,0,1,2.237-5.4l-2.535-4.552a2.243,2.243,0,0,1,.372-2.659l3.841-3.843a2.234,2.234,0,0,1,2.66-.369l4.55,2.532a23.467,23.467,0,0,1,5.4-2.236l1.427-5.009a2.236,2.236,0,0,1,2.142-1.618h5.434a2.236,2.236,0,0,1,2.141,1.62l1.427,5.009a23.511,23.511,0,0,1,3.693,1.355l.644.3v21.162l-2.109-4.236a9.5,9.5,0,1,0-12.162,13ZM290.944,193.7H302.65a11.733,11.733,0,1,1,16.28-16.888v-11.52a21.43,21.43,0,0,0-3.272-1.088l-.628-.154-1.778-6.247h-5.434l-1.778,6.247-.629.154a21.243,21.243,0,0,0-5.968,2.47l-.554.336-5.666-3.158-3.841,3.843,3.158,5.673-.336.554a21.257,21.257,0,0,0-2.47,5.967l-.154.628-6.247,1.781v5.434l6.247,1.778.154.629a21.171,21.171,0,0,0,1.219,3.562Z" data-name="Path 94" transform="translate(-281.1 -155.578)"/></g><path id="Path_95" fill="#6ba53a" d="M56,97.709v7.382S56,95.864,56,97.709Z" data-name="Path 95" transform="translate(-54.887 -81.106)"/><path id="Path_96" fill="#fff" d="M141.176,139.718H52.117a1.114,1.114,0,1,1,0-2.227h89.059a1.114,1.114,0,0,1,0,2.227Z" data-name="Path 96" transform="translate(-50.998 -114.615)"/><g id="Group_10" data-name="Group 10" transform="translate(0 12.15)"><g id="Group_9" data-name="Group 9" transform="translate(0 0)"><path id="Path_98" fill="#fff" d="M165.9,325.405H84.071a1.114,1.114,0,0,1,0-2.227H165.9a1.114,1.114,0,0,1,0,2.227Z" data-name="Path 98" transform="translate(-75.842 -271.107)"/><path id="Path_99" fill="#fff" d="M209.994,448.494H176.179a1.114,1.114,0,0,1,0-2.227h33.815a1.114,1.114,0,1,1,0,2.227Z" data-name="Path 99" transform="translate(-147.442 -366.791)"/><path id="Path_100" fill="#fff" d="M90.195,115.592a1.113,1.113,0,0,1-1.113-1.113v-.032a1.114,1.114,0,1,1,2.227,0v.032a1.113,1.113,0,0,1-1.114,1.113Z" data-name="Path 100" transform="translate(-80.603 -107.986)"/><path id="Path_101" fill="#fff" d="M109.52,115.592a1.113,1.113,0,0,1-1.113-1.113v-.032a1.114,1.114,0,1,1,2.227,0v.032a1.113,1.113,0,0,1-1.114,1.113Z" data-name="Path 101" transform="translate(-95.625 -107.986)"/><path id="Path_102" fill="#fff" d="M128.847,115.592a1.113,1.113,0,0,1-1.113-1.113v-.032a1.114,1.114,0,0,1,2.227,0v.032a1.113,1.113,0,0,1-1.114,1.113Z" data-name="Path 102" transform="translate(-110.644 -107.986)"/><path id="Path_103" fill="#fff" d="M137.837,154.837H55.453A4.459,4.459,0,0,1,51,150.384V93.773a4.459,4.459,0,0,1,4.453-4.453h82.384a4.459,4.459,0,0,1,4.453,4.453v7.386a1.114,1.114,0,0,1-2.227,0V93.773a2.229,2.229,0,0,0-2.227-2.227H55.453a2.229,2.229,0,0,0-2.227,2.227v56.611a2.229,2.229,0,0,0,2.227,2.227h82.384a2.229,2.229,0,0,0,2.227-2.227V107.292a1.114,1.114,0,1,1,2.227,0v43.093A4.459,4.459,0,0,1,137.837,154.837Z" data-name="Path 103" transform="translate(-51 -89.32)"/></g><path id="Path_104" fill="#fff" d="M126.213,266.485H89.087a1.116,1.116,0,1,1,0-2.23h37.127a1.116,1.116,0,1,1,0,2.23Z" data-name="Path 104" transform="translate(-79.743 -225.305)"/><path id="Path_105" fill="#fff" d="M112.854,224.5H89.087a1.116,1.116,0,1,1,0-2.23h23.767a1.116,1.116,0,0,1,0,2.23Z" data-name="Path 105" transform="translate(-79.743 -192.661)"/><path id="Path_106" fill="#fff" d="M126.188,286.351H89.062a1.116,1.116,0,0,1,0-2.23h37.127a1.116,1.116,0,1,1,0,2.23Z" data-name="Path 106" transform="translate(-79.718 -240.747)"/><path id="Path_107" fill="#fff" d="M92.875,175.978a1.11,1.11,0,0,1-.787-.325l-2.679-2.679a1.113,1.113,0,0,1,0-1.575l2.679-2.679a1.114,1.114,0,0,1,1.575,1.575l-1.889,1.889,1.889,1.889a1.113,1.113,0,0,1-.787,1.9Z" data-name="Path 107" transform="translate(-80.603 -150.786)"/><path id="Path_108" fill="#fff" d="M148.993,175.976a1.113,1.113,0,0,1-.787-1.9l1.889-1.889-1.889-1.889a1.114,1.114,0,0,1,1.575-1.575l2.679,2.679a1.113,1.113,0,0,1,0,1.575l-2.679,2.679a1.108,1.108,0,0,1-.787.32Z" data-name="Path 108" transform="translate(-126.309 -150.784)"/><path id="Path_109" fill="#fff" d="M118.814,175.977a1.114,1.114,0,0,1-.969-1.661l3.026-5.359a1.114,1.114,0,1,1,1.94,1.1l-3.026,5.359a1.114,1.114,0,0,1-.971.567Z" data-name="Path 109" transform="translate(-102.848 -150.784)"/></g><path id="Path_111" fill="#6ba53a" d="M332.115,260.155Z" data-name="Path 111" transform="translate(-265.88 -202.595)"/><path id="Path_112" fill="#6ba53a" d="M397.739,228.192Z" data-name="Path 112" transform="translate(-316.743 -171.106)"/><ellipse id="Ellipse_7" cx="1.245" cy="1.245" fill="#fff" data-name="Ellipse 7" rx="1.245" ry="1.245" transform="translate(56.143 29.755)"/><ellipse id="Ellipse_8" cx="1.245" cy="1.245" fill="#fff" data-name="Ellipse 8" rx="1.245" ry="1.245" transform="translate(52.378 29.755)"/><ellipse id="Ellipse_9" cx="1.245" cy="1.245" fill="#fff" data-name="Ellipse 9" rx="1.245" ry="1.245" transform="translate(48.613 29.755)"/></g></svg>