<svg xmlns="http://www.w3.org/2000/svg" width="122.487" height="83.691" viewBox="0 0 122.487 83.691">
  <g id="Group_20" data-name="Group 20" transform="translate(1.5 1.5)">
    <g id="Group_19" data-name="Group 19" transform="translate(0 0)">
      <g id="Group_18" data-name="Group 18" transform="translate(0)">
        <path id="Path_13" data-name="Path 13" d="M103.089,72.417H32.1v-3.1h70.992Zm-70.317-.675h69.642v-1.75H32.772Zm70.317-11.449H30.446v-.675h71.968V31.429h.675ZM3.675,21.359H3V-1H103.089V11.35h-.675V-.325H3.675Z" transform="translate(6.699 1)" fill="#6ba439" stroke="#6ba439" stroke-width="3"/>
        <path id="Path_14" data-name="Path 14" d="M50.036,4a10,10,0,1,1-3.907.789A9.971,9.971,0,0,1,50.036,4Zm0,19.4a9.36,9.36,0,0,0,6.619-15.98A9.36,9.36,0,1,0,43.418,20.655,9.291,9.291,0,0,0,50.036,23.4Z" transform="translate(59.414 8.124)" fill="#1a6465" stroke="#1a6465" stroke-width="3"/>
        <path id="Path_15" data-name="Path 15" d="M-1,8H36.046V66.868H-1Zm36.371.675H-.325V66.194h35.7Z" transform="translate(1 13.823)" fill="#1a6465" stroke="#1a6465" stroke-width="3"/>
      </g>
    </g>
  </g>
</svg>
