<svg id="Group_34" data-name="Group 34" xmlns="http://www.w3.org/2000/svg" width="96.594" height="99.649" viewBox="0 0 96.594 99.649">
  <g id="_404-error" data-name="404-error" transform="translate(0 0)">
    <g id="Group_32" data-name="Group 32" transform="translate(0 13.2)">
      <path id="Path_245" data-name="Path 245" d="M90.261,124.555a1.178,1.178,0,0,0-1.178,1.178v.035a1.178,1.178,0,0,0,2.356,0v-.035A1.178,1.178,0,0,0,90.261,124.555Z" transform="translate(-80.11 -118.897)" fill="#4e5f60"/>
      <path id="Path_246" data-name="Path 246" d="M109.586,124.555a1.178,1.178,0,0,0-1.178,1.178v.035a1.178,1.178,0,0,0,2.356,0v-.035a1.178,1.178,0,0,0-1.178-1.178Z" transform="translate(-94.882 -118.897)" fill="#4e5f60"/>
      <path id="Path_247" data-name="Path 247" d="M128.91,124.555a1.178,1.178,0,0,0-1.178,1.178v.035a1.178,1.178,0,0,0,2.356,0v-.035A1.178,1.178,0,0,0,128.91,124.555Z" transform="translate(-109.653 -118.897)" fill="#4e5f60"/>
      <path id="Path_248" data-name="Path 248" d="M142.882,100.541H55.714A4.717,4.717,0,0,0,51,105.253v7.812a1.178,1.178,0,0,0,1.178,1.178h93.06v36.083a1.178,1.178,0,0,0,2.356,0V105.261A4.717,4.717,0,0,0,142.882,100.541Zm2.356,11.349H53.358v-6.637a2.359,2.359,0,0,1,2.356-2.356h87.169a2.359,2.359,0,0,1,2.356,2.356Z" transform="translate(-51 -100.541)" fill="#4e5f60"/>
      <path id="Path_249" data-name="Path 249" d="M146.415,213.511H53.357v-36.08a1.178,1.178,0,1,0-2.356,0v45.595a4.717,4.717,0,0,0,4.712,4.712H88.746L85.02,242.51H81.408a1.178,1.178,0,1,0,0,2.356h35.778a1.178,1.178,0,0,0,0-2.356h-3.612l-3.726-14.772h33.033a4.717,4.717,0,0,0,4.712-4.712v-8.337a1.178,1.178,0,0,0-1.178-1.178Zm-35.275,29H87.449l3.726-14.772h16.237Zm34.092-19.484a2.359,2.359,0,0,1-2.356,2.356H55.713a2.359,2.359,0,0,1-2.356-2.356v-7.159h91.88Z" transform="translate(-50.999 -158.416)" fill="#4e5f60"/>
    </g>
    <path id="Path_262" data-name="Path 262" d="M330.91,52.04a1.175,1.175,0,0,1-.828-.345l-2.59-2.59a1.178,1.178,0,0,1,0-1.665l2.59-2.59a1.178,1.178,0,0,1,1.665,0l2.59,2.59a1.178,1.178,0,0,1,0,1.665l-2.59,2.59A1.175,1.175,0,0,1,330.91,52.04Zm-.924-3.768.924.924.925-.924-.925-.924Z" transform="translate(-262.083 -44.507)" fill="#4e5f60"/>
    <path id="Path_263" data-name="Path 263" d="M120.5,436.058a1.173,1.173,0,0,1-.828-.345l-2.59-2.59a1.178,1.178,0,0,1,0-1.665l2.59-2.59a1.178,1.178,0,0,1,1.665,0l2.59,2.59a1.178,1.178,0,0,1,0,1.665l-2.59,2.59a1.173,1.173,0,0,1-.837.345Zm-.924-3.768.924.925.924-.925-.924-.925Z" transform="translate(-101.246 -338.055)" fill="#4e5f60"/>
    <path id="Path_264" data-name="Path 264" d="M350.976,415.086a1.173,1.173,0,0,1-.828-.345l-2.59-2.59a1.178,1.178,0,0,1,0-1.665l2.59-2.59a1.178,1.178,0,0,1,1.665,0l2.59,2.59a1.178,1.178,0,0,1,0,1.665l-2.59,2.59a1.173,1.173,0,0,1-.837.345Zm-.925-3.768.925.925.925-.925-.925-.925Z" transform="translate(-277.423 -322.021)" fill="#4e5f60"/>
    <path id="Path_265" data-name="Path 265" d="M400.8,442.059a1.173,1.173,0,0,1-.828-.345l-2.595-2.591a1.178,1.178,0,0,1,0-1.665l2.59-2.59a1.178,1.178,0,0,1,1.665,0l2.59,2.59a1.178,1.178,0,0,1,0,1.665l-2.59,2.59A1.174,1.174,0,0,1,400.8,442.059Zm-.924-3.767.924.924.925-.924-.925-.925Z" transform="translate(-315.508 -342.642)" fill="#4e5f60"/>
  </g>
  <g id="XMLID_1983_" transform="translate(28.901 31.443)">
    <g id="XMLID_287_" transform="translate(0 0)">
      <path id="XMLID_389_" d="M9.5,22.628a3.516,3.516,0,0,0,2.523-2.31H23.984a3.608,3.608,0,0,0,3.449-2.595l1.445-4.989a6.461,6.461,0,1,0-7.124-9.566H19.384a.663.663,0,0,0,0,1.325h1.761a6.461,6.461,0,0,0,6.153,8.45h.144l-1.282,4.43a2.283,2.283,0,0,1-2.182,1.64H12.2a3.489,3.489,0,0,0-.076-.548L9.013,4.491h4.444a.663.663,0,1,0,0-1.325H8.72l-.094-.421A3.479,3.479,0,0,0,5.2.007H.663A.663.663,0,0,0,0,.659V3.569a.663.663,0,0,0,.663.663H4.639l3.232,14.5a4.79,4.79,0,0,0,1.769,9.24H11.4a3.242,3.242,0,1,0,3.976,0h7.272a3.242,3.242,0,1,0,3.976,0h3.458a.663.663,0,0,0,.663-.663v-2.9a.663.663,0,0,0-.663-.663H9.633a.568.568,0,0,1-.129-1.12ZM22.16,6.47A5.136,5.136,0,1,1,27.3,11.606,5.136,5.136,0,0,1,22.16,6.47ZM13.389,32.455a1.924,1.924,0,1,1,1.924-1.924,1.924,1.924,0,0,1-1.924,1.924Zm11.243,0a1.924,1.924,0,1,1,1.924-1.924,1.924,1.924,0,0,1-1.924,1.924ZM7.745,23.177a1.889,1.889,0,0,0,1.887,1.887H29.415v1.582H9.633A3.469,3.469,0,0,1,8.8,19.808a.663.663,0,0,0,.485-.784L5.8,3.424a.663.663,0,0,0-.644-.515H1.325V1.322H5.2A2.175,2.175,0,0,1,7.338,3.037l3.5,15.7A2.2,2.2,0,0,1,9.2,21.344a1.879,1.879,0,0,0-1.456,1.837Z" transform="translate(0 -0.005)" fill="#4e5f60"/>
      <path id="XMLID_1053_" d="M239.673,49.325a.663.663,0,1,0-.466-.194.663.663,0,0,0,.466.194Z" transform="translate(-223.251 -44.842)" fill="#4e5f60"/>
      <path id="XMLID_1058_" d="M375.161,56.252h-1.582V54.663a.663.663,0,0,0-1.325,0v1.582h-1.582a.663.663,0,1,0,0,1.325h1.582v1.582a.663.663,0,0,0,1.325,0V57.57h1.582a.663.663,0,0,0,0-1.325Z" transform="translate(-345.613 -50.446)" fill="#4e5f60"/>
    </g>
  </g>
</svg>
