<svg xmlns="http://www.w3.org/2000/svg" xmlns:xlink="http://www.w3.org/1999/xlink" id="Group_8" width="90.832" height="90.679" data-name="Group 8" viewBox="0 0 90.832 90.679"><defs><clipPath id="clip-path"><rect id="Rectangle_9" width="90.832" height="90.679" fill="#4e5f60" data-name="Rectangle 9"/></clipPath></defs><g id="Group_7" clip-path="url(#clip-path)" data-name="Group 7"><path id="Path_3" fill="#4e5f60" d="M58.894,48.445c2.195-.878,4.158-1.6,6.048-2.472a1.911,1.911,0,0,0,.773-1.441c.152-3.871.125-3.872,4.065-3.87,2.737,0,5.475-.014,8.212.006,1.862.014,2.393.553,2.451,2.386.082,2.64.083,2.64,2.586,3.577a2.48,2.48,0,0,1,.445.185c2.242,1.39,4.32,2.072,6.168-.717.564-.852,1.675-.589,2.422.146q3.845,3.783,7.648,7.608c1,1.01.742,1.978-.185,2.947-1.974,2.063-1.954,2.082-.812,4.614a4.318,4.318,0,0,1,.378.886c.47,2.4,1.59,3.755,4.343,3.263,1.254-.224,1.925.72,1.923,2.021,0,3.435.017,6.871-.009,10.306-.013,1.635-.6,2.345-2.273,2.163-2.2-.241-3.452.449-3.762,2.687a2.1,2.1,0,0,1-.363.89c-1.483,2.084-1.516,3.861.791,5.474.992.693.823,1.814-.028,2.672q-3.741,3.773-7.524,7.505c-1.071,1.06-2.06.8-3.076-.172-2.021-1.934-2.042-1.913-4.6-.76a3.2,3.2,0,0,1-.589.257c-2.466.54-4.157,1.564-3.558,4.6.206,1.045-.706,1.75-1.86,1.754-3.6.012-7.193.019-10.789,0a1.783,1.783,0,0,1-1.932-2.211c.3-2.23-.435-3.488-2.736-3.855a5.8,5.8,0,0,1-2.34-1.038c-1.24-.884-2.014-.485-2.958.524-2.067,2.21-2.516,2.156-4.647.024-2.087-2.088-4.187-4.163-6.268-6.257-1.38-1.389-1.365-2.1.018-3.511a11.366,11.366,0,0,1,1.033-1.015,1.326,1.326,0,0,0,.351-1.93,37.427,37.427,0,0,1-1.867-4.442,1.464,1.464,0,0,0-1.608-1.162c-3.931-.065-3.93-.1-3.93-4.092,0-2.684-.009-5.368.007-8.051.011-1.872.529-2.385,2.38-2.432a6.35,6.35,0,0,1,1.126,0c1.227.191,1.8-.312,2.15-1.519a24.57,24.57,0,0,1,1.766-4.134,1.335,1.335,0,0,0-.3-1.81c-2.778-2.908-2.76-2.926.087-5.768,1.823-1.82,3.641-3.647,5.471-5.46,1.62-1.605,2.248-1.6,3.868.005.531.528,1.021,1.1,1.5,1.619M44.519,68.919v7.637c.659,0,1.188,0,1.718,0,2.4.017,2.428.121,3.178,2.494a35.927,35.927,0,0,0,2.013,5.07c1.561,3.161,1.615,3.132-.821,5.793-.135.147-.205.352-.153.26l5.325,5.463c.342-.423.748-.921,1.149-1.421,1.061-1.322,2.149-1.289,3.65-.508a48.8,48.8,0,0,0,6.81,2.78c1.321.449,2.018,1.093,1.925,2.516-.048.734-.008,1.473-.008,2.281h7.581c0-.669,0-1.2,0-1.724.017-2.427.1-2.438,2.484-3.166a32.565,32.565,0,0,0,4.792-1.839c3.5-1.71,3.478-1.758,6.325.836.068.062.193.062-.127-.032l5.569-5.367c-.5-.424-1.082-.9-1.643-1.4a2.144,2.144,0,0,1-.442-2.869c1.145-2.466,2.151-5,3.127-7.54a2.092,2.092,0,0,1,2.1-1.625c.882,0,1.763,0,2.633,0V69.05c-.673,0-1.248,0-1.822,0-2.257-.02-2.39-.2-3.08-2.418A28.35,28.35,0,0,0,94.877,61.7c-2.028-3.8-2.083-3.1.85-6.2.065-.068.069-.195.093-.268L90.3,49.74a7.574,7.574,0,0,1-.9,1.481c-1.619,1.676-1.842,1.577-3.872.585A48.618,48.618,0,0,0,79,49.158c-1.448-.463-2.259-1.1-2.124-2.683.058-.679.01-1.367.01-2.13h-7.51c-.028.61-.064,1.084-.069,1.559-.029,2.6-.079,2.57-2.508,3.311a32.669,32.669,0,0,0-4.932,1.919c-3.294,1.628-3.266,1.682-6.063-.844a4.213,4.213,0,0,0-.773-.337c-.7.812-1.417,1.754-2.246,2.585-.859.861-1.825,1.615-2.793,2.458.684.723,1.04,1.113,1.411,1.488,1.706,1.721,1.688,1.9.554,4a18.106,18.106,0,0,0-1.976,4.381c-.671,2.967-1.717,5.142-5.464,4.048" data-name="Path 3" transform="translate(-27.679 -27.562)"/><path id="Path_4" fill="#4e5f60" d="M3.523,44.373a43.029,43.029,0,0,0,7.756,25.049,1.891,1.891,0,0,0,2.585.927,7.27,7.27,0,0,1,8.651,3.52,7.365,7.365,0,0,1-1.587,9.094,7.529,7.529,0,0,1-9.375.424,7.267,7.267,0,0,1-2.366-8.9,2.052,2.052,0,0,0-.328-2.425C-11.245,45.012,4.736,5.868,38,.594A46.031,46.031,0,0,1,53.528.727,3.716,3.716,0,0,1,55.553,1.8,1.761,1.761,0,0,1,55.5,3.537a2.74,2.74,0,0,1-1.936.72c-2.458-.146-4.9-.638-7.358-.678A41.83,41.83,0,0,0,3.989,39.195c-.31,2.008-.369,4.055-.467,5.178m12.529,36.9a3.916,3.916,0,0,0,3.836-3.931,4,4,0,0,0-3.976-3.821,3.956,3.956,0,0,0-3.821,3.961,3.876,3.876,0,0,0,3.96,3.791" data-name="Path 4" transform="translate(0 0)"/><path id="Path_5" fill="#4e5f60" d="M119.18,102.642c-2.518-.268-5.025-.495-7.521-.812-2.2-.28-3-1.029-2.736-2.351.243-1.2,1.161-1.51,3.358-1.145a41.088,41.088,0,0,0,26.513-4.267,41.666,41.666,0,0,0,14.8-60.7c-.8-1.151-1.4-1.781-3.062-1.21a7.153,7.153,0,0,1-8.447-3.636,7.351,7.351,0,0,1,1.7-9.071,7.515,7.515,0,0,1,9.247-.416,7.222,7.222,0,0,1,2.506,8.728,2.428,2.428,0,0,0,.4,2.845c19.9,26.913,3.806,66.137-29.225,71.227-2.484.383-5,.539-7.526.8M148.707,21.2a3.922,3.922,0,0,0-3.956,3.811,4,4,0,0,0,3.855,3.941,3.953,3.953,0,0,0,3.939-3.841,3.871,3.871,0,0,0-3.839-3.911" data-name="Path 5" transform="translate(-73.806 -11.963)"/><path id="Path_6" fill="#4e5f60" d="M86.593,264.167c-.478-.638-1.224-1.22-1.37-1.926a1.508,1.508,0,0,1,1.567-1.8c1.1-.056,1.953.6,1.8,1.714-.1.708-.819,1.331-1.261,1.992l-.738.015" data-name="Path 6" transform="translate(-57.75 -176.555)"/><path id="Path_7" fill="#4e5f60" d="M188.444,9.073c.462.645,1.178,1.238,1.325,1.949a1.491,1.491,0,0,1-1.573,1.783,1.557,1.557,0,0,1-1.8-1.742c.09-.7.853-1.323,1.314-1.98l.734-.011" data-name="Path 7" transform="translate(-126.349 -6.151)"/><path id="Path_8" fill="#4e5f60" d="M95.6,109.752A14.626,14.626,0,1,1,110.25,124.37,14.579,14.579,0,0,1,95.6,109.752m25.69-.057a11.065,11.065,0,1,0-10.952,11.128,11.031,11.031,0,0,0,10.952-11.128" data-name="Path 8" transform="translate(-64.807 -64.514)"/></g></svg>