<svg xmlns="http://www.w3.org/2000/svg" id="Group_6" width="93.054" height="100.426" data-name="Group 6" viewBox="0 0 93.054 100.426"><path id="Path_85" fill="#fff" d="M306.955,42.032a1.134,1.134,0,0,1-.8-.332l-2.5-2.5a1.134,1.134,0,0,1,0-1.605l2.5-2.5a1.134,1.134,0,0,1,1.605,0l2.494,2.5a1.134,1.134,0,0,1,0,1.605l-2.5,2.5A1.136,1.136,0,0,1,306.955,42.032Zm-.889-3.636.889.889.889-.889-.889-.889Z" data-name="Path 85" transform="translate(-246.053 -34.76)"/><path id="Path_86" fill="#fff" d="M369.668,411.717a1.134,1.134,0,0,1-.8-.332l-2.5-2.5a1.135,1.135,0,0,1,0-1.605l2.5-2.5a1.134,1.134,0,0,1,1.605,0l2.5,2.5a1.134,1.134,0,0,1,0,1.605l-2.5,2.5A1.136,1.136,0,0,1,369.668,411.717Zm-.889-3.636.889.889.889-.889-.889-.889Z" data-name="Path 86" transform="translate(-294.534 -320.54)"/><path id="Path_87" fill="#fff" d="M94.3,452.475a1.134,1.134,0,0,1-1.134-1.134,1.367,1.367,0,0,0-1.365-1.365,1.135,1.135,0,0,1,0-2.27,1.368,1.368,0,0,0,1.365-1.365,1.135,1.135,0,1,1,2.27,0,1.367,1.367,0,0,0,1.365,1.365,1.135,1.135,0,0,1,0,2.27,1.367,1.367,0,0,0-1.365,1.365,1.134,1.134,0,0,1-1.136,1.134Z" data-name="Path 87" transform="translate(-81.662 -352.049)"/><path id="Path_88" fill="#fff" d="M137.633,406.077a1.134,1.134,0,0,1-1.134-1.134,1.367,1.367,0,0,0-1.365-1.365,1.135,1.135,0,1,1,0-2.27,1.367,1.367,0,0,0,1.365-1.365,1.135,1.135,0,0,1,2.27,0,1.367,1.367,0,0,0,1.365,1.365,1.135,1.135,0,0,1,0,2.27,1.368,1.368,0,0,0-1.365,1.365,1.134,1.134,0,0,1-1.136,1.134Z" data-name="Path 88" transform="translate(-115.161 -316.18)"/><path id="Path_90" fill="#fff" d="M221.165,393.4H195.422a1.134,1.134,0,0,1-1.1-1.413l4.052-16.056a1.135,1.135,0,0,1,2.2.555l-3.7,14.643H219.7l-3.727-14.775a1.135,1.135,0,0,1,2.2-.555l4.084,16.186a1.134,1.134,0,0,1-1.1,1.413Z" data-name="Path 90" transform="translate(-161.767 -297.737)"/><g id="Group_8" data-name="Group 8" transform="translate(52.222 26.419)"><path id="Path_94" fill="#fff" d="M312.619,196.707H289.7l-.31-.64a23.952,23.952,0,0,1-1.534-4.077l-5.106-1.454a2.284,2.284,0,0,1-1.648-2.183v-5.539a2.278,2.278,0,0,1,1.648-2.183l5.106-1.456a23.938,23.938,0,0,1,2.281-5.5l-2.584-4.64a2.286,2.286,0,0,1,.379-2.71l3.915-3.917a2.277,2.277,0,0,1,2.711-.376l4.638,2.581a23.92,23.92,0,0,1,5.5-2.279l1.454-5.106a2.279,2.279,0,0,1,2.183-1.65h5.538a2.279,2.279,0,0,1,2.183,1.651l1.454,5.106a23.968,23.968,0,0,1,3.764,1.382l.656.305v21.571l-2.15-4.318a9.685,9.685,0,1,0-12.4,13.251Zm-21.485-2.27h11.931a11.96,11.96,0,1,1,16.595-17.214V165.481a21.843,21.843,0,0,0-3.335-1.109l-.64-.157-1.813-6.368h-5.538l-1.813,6.368-.641.157a21.653,21.653,0,0,0-6.083,2.518l-.564.342-5.775-3.219-3.915,3.917,3.219,5.783-.342.564a21.668,21.668,0,0,0-2.518,6.082l-.157.64-6.368,1.816v5.539l6.368,1.813.157.641a21.581,21.581,0,0,0,1.242,3.631Z" data-name="Path 94" transform="translate(-281.1 -155.578)"/></g><path id="Path_95" fill="#fff" d="M56,97.714v7.524S56,95.833,56,97.714Z" data-name="Path 95" transform="translate(-54.866 -80.791)"/><path id="Path_96" fill="#fff" d="M142.917,139.761H52.139a1.135,1.135,0,1,1,0-2.27h90.778a1.135,1.135,0,0,1,0,2.27Z" data-name="Path 96" transform="translate(-50.998 -114.173)"/><g id="Group_10" data-name="Group 10" transform="translate(0 12.384)"><g id="Group_9" data-name="Group 9" transform="translate(0 0)"><path id="Path_98" fill="#fff" d="M167.5,325.448h-83.4a1.135,1.135,0,0,1,0-2.27h83.4a1.135,1.135,0,0,1,0,2.27Z" data-name="Path 98" transform="translate(-75.705 -270.102)"/><path id="Path_99" fill="#fff" d="M210.668,448.537H176.2a1.135,1.135,0,0,1,0-2.27h34.468a1.135,1.135,0,1,1,0,2.27Z" data-name="Path 99" transform="translate(-146.909 -365.257)"/><path id="Path_100" fill="#fff" d="M90.216,115.636a1.134,1.134,0,0,1-1.134-1.134v-.033a1.135,1.135,0,1,1,2.27,0v.033a1.134,1.134,0,0,1-1.136,1.134Z" data-name="Path 100" transform="translate(-80.44 -107.883)"/><path id="Path_101" fill="#fff" d="M109.541,115.636a1.134,1.134,0,0,1-1.134-1.134v-.033a1.135,1.135,0,1,1,2.27,0v.033a1.134,1.134,0,0,1-1.136,1.134Z" data-name="Path 101" transform="translate(-95.378 -107.883)"/><path id="Path_102" fill="#fff" d="M128.868,115.636a1.134,1.134,0,0,1-1.134-1.134v-.033a1.135,1.135,0,1,1,2.27,0v.033a1.134,1.134,0,0,1-1.136,1.134Z" data-name="Path 102" transform="translate(-110.314 -107.883)"/><path id="Path_103" fill="#fff" d="M139.514,156.1H55.539A4.545,4.545,0,0,1,51,151.563v-57.7a4.545,4.545,0,0,1,4.539-4.539h83.975a4.545,4.545,0,0,1,4.539,4.539v7.529a1.135,1.135,0,0,1-2.27,0V93.859a2.272,2.272,0,0,0-2.27-2.27H55.539a2.272,2.272,0,0,0-2.27,2.27v57.7a2.272,2.272,0,0,0,2.27,2.27h83.975a2.272,2.272,0,0,0,2.27-2.27V107.639a1.135,1.135,0,1,1,2.27,0v43.925A4.545,4.545,0,0,1,139.514,156.1Z" data-name="Path 103" transform="translate(-51 -89.32)"/></g><path id="Path_104" fill="#fff" d="M126.952,266.528H89.11a1.137,1.137,0,1,1,0-2.273h37.844a1.137,1.137,0,1,1,0,2.273Z" data-name="Path 104" transform="translate(-79.585 -224.553)"/><path id="Path_105" fill="#fff" d="M113.336,224.538H89.11a1.137,1.137,0,1,1,0-2.273h24.226a1.137,1.137,0,0,1,0,2.273Z" data-name="Path 105" transform="translate(-79.585 -192.089)"/><path id="Path_106" fill="#fff" d="M126.926,286.394H89.083a1.137,1.137,0,0,1,0-2.273h37.844a1.137,1.137,0,1,1,0,2.273Z" data-name="Path 106" transform="translate(-79.558 -239.909)"/><path id="Path_107" fill="#fff" d="M92.948,176.124a1.131,1.131,0,0,1-.8-.332l-2.731-2.731a1.134,1.134,0,0,1,0-1.605l2.731-2.731a1.135,1.135,0,1,1,1.605,1.605l-1.925,1.925,1.925,1.925a1.134,1.134,0,0,1-.8,1.937Z" data-name="Path 107" transform="translate(-80.439 -150.446)"/><path id="Path_108" fill="#fff" d="M149.015,176.123a1.134,1.134,0,0,1-.8-1.937l1.925-1.925-1.925-1.925a1.135,1.135,0,0,1,1.605-1.605l2.731,2.731a1.134,1.134,0,0,1,0,1.605l-2.731,2.731a1.13,1.13,0,0,1-.8.326Z" data-name="Path 108" transform="translate(-125.892 -150.444)"/><path id="Path_109" fill="#fff" d="M118.835,176.123a1.136,1.136,0,0,1-.988-1.693l3.085-5.463a1.135,1.135,0,1,1,1.977,1.117l-3.085,5.463a1.136,1.136,0,0,1-.989.578Z" data-name="Path 109" transform="translate(-102.562 -150.444)"/></g><path id="Path_111" fill="#fff" d="M332.115,260.156Z" data-name="Path 111" transform="translate(-264.601 -201.485)"/><path id="Path_112" fill="#fff" d="M397.739,228.192Z" data-name="Path 112" transform="translate(-315.179 -170.004)"/><circle id="Ellipse_7" cx="1.269" cy="1.269" r="1.269" fill="#fff" data-name="Ellipse 7" transform="translate(57.227 30.33)"/><circle id="Ellipse_8" cx="1.269" cy="1.269" r="1.269" fill="#fff" data-name="Ellipse 8" transform="translate(53.389 30.33)"/><circle id="Ellipse_9" cx="1.269" cy="1.269" r="1.269" fill="#fff" data-name="Ellipse 9" transform="translate(49.552 30.33)"/></svg>