<svg xmlns="http://www.w3.org/2000/svg" id="design_1_" width="104.366" height="95.143" data-name="design (1)" viewBox="0 0 104.366 95.143"><path id="Path_173" fill="#fcfcfc" d="M140.453,72.147a4.9,4.9,0,1,0-4.749-6.118H97.979V65.15a2.711,2.711,0,0,0-2.708-2.708H91.087a2.711,2.711,0,0,0-2.708,2.708v.879H50.651a4.9,4.9,0,1,0,0,2.427H78.589A44.928,44.928,0,0,0,48.3,109.716h-.9a2.711,2.711,0,0,0-2.708,2.708v4.184a2.711,2.711,0,0,0,2.708,2.708h4.184a2.711,2.711,0,0,0,2.708-2.708v-4.184a2.711,2.711,0,0,0-2.708-2.708h-.859A42.474,42.474,0,0,1,88.378,68.724v.609a2.711,2.711,0,0,0,2.708,2.708H95.27a2.711,2.711,0,0,0,2.708-2.708v-.609a42.474,42.474,0,0,1,37.653,40.99h-.863a2.711,2.711,0,0,0-2.708,2.708v4.184a2.711,2.711,0,0,0,2.708,2.708h4.184a2.711,2.711,0,0,0,2.708-2.708v-4.184a2.711,2.711,0,0,0-2.708-2.708h-.9a44.928,44.928,0,0,0-30.292-41.26H135.7a4.91,4.91,0,0,0,4.747,3.691ZM51.866,112.424v4.184a.282.282,0,0,1-.282.281H47.4a.282.282,0,0,1-.282-.281v-4.184a.282.282,0,0,1,.282-.281h4.184a.282.282,0,0,1,.282.281Zm87.373,0v4.184a.282.282,0,0,1-.282.281h-4.189a.282.282,0,0,1-.282-.281v-4.184a.282.282,0,0,1,.282-.281h4.184a.282.282,0,0,1,.286.281Zm1.214-47.659a2.477,2.477,0,1,1-2.477,2.477A2.477,2.477,0,0,1,140.453,64.765ZM45.906,69.72a2.477,2.477,0,1,1,2.477-2.477,2.477,2.477,0,0,1-2.477,2.477Zm49.648-.385a.282.282,0,0,1-.281.281H91.087a.282.282,0,0,1-.281-.281V65.15a.282.282,0,0,1,.281-.282h4.184a.282.282,0,0,1,.281.282Z" data-name="Path 173" transform="translate(-40.994 -62.337)"/><path id="Path_174" fill="#fcfcfc" d="M184.543,164.078l-5.612-1.546a24.891,24.891,0,0,0-2.51-5.858l2.84-4.936a2.33,2.33,0,0,0-.41-2.835l-4.292-4.152a2.532,2.532,0,0,0-2.933-.4l-5.1,2.747a26.746,26.746,0,0,0-4.308-1.9V134.57a5.756,5.756,0,0,0-.566-2.477l-4.875-10.142a3.7,3.7,0,0,0-6.606,0l-4.875,10.142a5.754,5.754,0,0,0-.566,2.477V145.2a26.7,26.7,0,0,0-4.31,1.9l-5.1-2.747a2.532,2.532,0,0,0-2.931.4l-4.292,4.152a2.331,2.331,0,0,0-.409,2.838l2.839,4.933a24.9,24.9,0,0,0-2.51,5.858l-5.612,1.546a2.4,2.4,0,0,0-1.785,2.288v5.871a2.4,2.4,0,0,0,1.785,2.287l5.612,1.546a24.889,24.889,0,0,0,2.51,5.858l-2.84,4.936a2.331,2.331,0,0,0,.41,2.835l4.292,4.152a2.531,2.531,0,0,0,2.932.4l5.1-2.746a26.709,26.709,0,0,0,6.056,2.427l1.6,5.429a2.458,2.458,0,0,0,2.365,1.727h6.069a2.458,2.458,0,0,0,2.364-1.727l1.6-5.429a26.7,26.7,0,0,0,6.056-2.427l5.1,2.747a2.531,2.531,0,0,0,2.932-.4l4.292-4.152a2.331,2.331,0,0,0,.409-2.837l-2.839-4.934a24.9,24.9,0,0,0,2.509-5.858l5.612-1.546a2.4,2.4,0,0,0,1.785-2.287v-5.871a2.4,2.4,0,0,0-1.784-2.289ZM153.472,142.7a1.194,1.194,0,0,0-1.214,1.174v36.775a11.742,11.742,0,0,1-9.805-7.266,11.125,11.125,0,0,1,2.276-11.744V173.1a1.214,1.214,0,0,0,2.427,0V139.253a7.552,7.552,0,0,0,5.662-.925,1.3,1.3,0,0,1,1.348.024,7.552,7.552,0,0,0,5.625.9v39.505a1.126,1.126,0,0,0,.018.165,11.98,11.98,0,0,1-5.122,1.732V143.875a1.2,1.2,0,0,0-1.215-1.168Zm8.748,18.929a11.132,11.132,0,0,1,0,15.323Zm-9.847-38.691a1.234,1.234,0,0,1,2.205,0l2.239,4.659a6.645,6.645,0,0,1-3.343.9,6.553,6.553,0,0,1-3.341-.9ZM147.5,133.082l1.606-3.341a9.148,9.148,0,0,0,8.743,0l1.606,3.341a3.453,3.453,0,0,1,.34,1.487v2.237a5.09,5.09,0,0,1-4.326-.442,3.805,3.805,0,0,0-3.952-.016,5.032,5.032,0,0,1-2.653.749,5.123,5.123,0,0,1-1.7-.292v-2.236a3.455,3.455,0,0,1,.333-1.484Zm36.407,39.15a.03.03,0,0,1-.023.029l-6.28,1.73a1.192,1.192,0,0,0-.847.849,22.6,22.6,0,0,1-2.766,6.458,1.14,1.14,0,0,0-.022,1.18L177.143,188a.032.032,0,0,1,0,.037l-4.292,4.152a.034.034,0,0,1-.036,0l-5.707-3.074a1.248,1.248,0,0,0-1.219.021,24.227,24.227,0,0,1-6.677,2.676,1.2,1.2,0,0,0-.878.819l-1.789,6.075a.03.03,0,0,1-.03.022h-6.069a.03.03,0,0,1-.03-.023l-1.788-6.074a1.2,1.2,0,0,0-.878-.819,24.242,24.242,0,0,1-6.677-2.676,1.248,1.248,0,0,0-1.219-.021l-5.706,3.073a.034.034,0,0,1-.037,0l-4.292-4.152a.032.032,0,0,1,0-.036l3.178-5.52a1.14,1.14,0,0,0-.022-1.18,22.585,22.585,0,0,1-2.766-6.458,1.194,1.194,0,0,0-.846-.849l-6.28-1.73a.03.03,0,0,1-.022-.029v-5.871a.03.03,0,0,1,.023-.029l6.28-1.729a1.192,1.192,0,0,0,.846-.849,22.6,22.6,0,0,1,2.766-6.459,1.14,1.14,0,0,0,.022-1.18l-3.177-5.519a.032.032,0,0,1,0-.037l4.292-4.152a.035.035,0,0,1,.036,0l5.707,3.074a1.249,1.249,0,0,0,1.219-.021,24.177,24.177,0,0,1,3.664-1.752v10.744a13.474,13.474,0,0,0-4.114,16.733,14.368,14.368,0,0,0,15.977,7.546A13.869,13.869,0,0,0,167.71,169.3a13.506,13.506,0,0,0-5.482-10.857V147.7a24.18,24.18,0,0,1,3.663,1.752,1.249,1.249,0,0,0,1.219.021l5.706-3.073a.034.034,0,0,1,.039,0l4.292,4.152a.032.032,0,0,1,0,.036l-3.178,5.52a1.14,1.14,0,0,0,.022,1.18,22.591,22.591,0,0,1,2.766,6.459,1.194,1.194,0,0,0,.846.849l6.28,1.73a.03.03,0,0,1,.022.029Z" data-name="Path 174" transform="translate(-101.288 -105.942)"/><g id="Group_27" data-name="Group 27" transform="translate(0.321 13.008)"><path id="Path_176" fill="#fcfcfc" d="M46.179,134.988a1.214,1.214,0,0,1-1.214-1.214,1.457,1.457,0,0,0-1.454-1.454,1.214,1.214,0,0,1,0-2.427,1.457,1.457,0,0,0,1.454-1.454,1.214,1.214,0,0,1,2.427,0,1.457,1.457,0,0,0,1.454,1.454,1.214,1.214,0,1,1,0,2.427,1.457,1.457,0,0,0-1.454,1.454,1.214,1.214,0,0,1-1.214,1.214Z" data-name="Path 176" transform="translate(-42.297 -127.225)"/><path id="Path_177" fill="#fcfcfc" d="M333.4,162.874a1.214,1.214,0,0,1-1.214-1.214,1.457,1.457,0,0,0-1.456-1.454,1.214,1.214,0,1,1,0-2.427,1.457,1.457,0,0,0,1.456-1.454,1.214,1.214,0,1,1,2.427,0,1.457,1.457,0,0,0,1.454,1.454,1.214,1.214,0,0,1,0,2.427,1.457,1.457,0,0,0-1.454,1.454,1.214,1.214,0,0,1-1.214,1.214Z" data-name="Path 177" transform="translate(-259.816 -148.344)"/><path id="Path_178" fill="#fcfcfc" d="M89.652,413.762a1.208,1.208,0,0,1-.858-.351l-2.668-2.668a1.213,1.213,0,0,1,0-1.716l2.668-2.668a1.212,1.212,0,0,1,1.716,0l2.668,2.668a1.212,1.212,0,0,1,0,1.716l-2.668,2.668A1.208,1.208,0,0,1,89.652,413.762ZM88.7,409.88l.952.952.952-.952-.952-.952Z" data-name="Path 178" transform="translate(-75.219 -338.343)"/><path id="Path_179" fill="#fcfcfc" d="M420.468,334.254a1.209,1.209,0,0,1-.858-.351l-2.668-2.668a1.212,1.212,0,0,1,0-1.716l2.668-2.668a1.213,1.213,0,0,1,1.716,0l2.668,2.668a1.212,1.212,0,0,1,0,1.716l-2.668,2.668a1.21,1.21,0,0,1-.858.351Zm-.952-3.882.952.952.952-.952-.952-.952Z" data-name="Path 179" transform="translate(-325.751 -278.131)"/></g></svg>