<svg xmlns="http://www.w3.org/2000/svg" xmlns:xlink="http://www.w3.org/1999/xlink" id="miquido-bnp-hero" width="145.186" height="31.578" viewBox="0 0 145.186 31.578"><defs><linearGradient id="linear-gradient" x1=".5" x2=".5" y1="-.025" y2="1.048" gradientUnits="objectBoundingBox"><stop offset="0" stop-color="#007348"/><stop offset=".6" stop-color="#8dc9ab"/><stop offset="1" stop-color="#00925b"/></linearGradient><linearGradient id="linear-gradient-2" x1=".5" x2=".5" y1="-.28" y2=".969" gradientUnits="objectBoundingBox"><stop offset="0" stop-color="#00925b"/><stop offset=".3" stop-color="#8dc9ab"/><stop offset=".55" stop-color="#00925b"/><stop offset=".835" stop-color="#007348"/><stop offset="1" stop-color="#009c6d"/></linearGradient><linearGradient id="linear-gradient-3" x1=".5" x2=".5" y1="2.264" y2="-.019" gradientUnits="objectBoundingBox"><stop offset="0" stop-color="#00a678"/><stop offset="1" stop-color="#00925b"/></linearGradient><linearGradient id="linear-gradient-4" x1=".5" x2=".5" y1="1.051" y2="-1.704" xlink:href="#linear-gradient-3"/><linearGradient id="linear-gradient-5" x1=".513" x2=".513" y1="2.071" y2="-.748" xlink:href="#linear-gradient-3"/><linearGradient id="linear-gradient-6" x1=".5" x2=".5" y1=".953" y2="-4.407" xlink:href="#linear-gradient-3"/></defs><g id="Group_67" data-name="Group 67" transform="translate(0 0)"><g id="Group_66" data-name="Group 66" transform="translate(0)"><g id="Group_65" data-name="Group 65"><g id="Group_64" data-name="Group 64"><g id="Group_63" data-name="Group 63"><path id="Path_229" fill="url(#linear-gradient)" d="M.035,6.168H32.254V-25.41H.035Z" data-name="Path 229" transform="translate(-0.035 25.41)"/><path id="Path_230" fill="url(#linear-gradient-2)" d="M2.432-24.96c-.624,0-1.033.526-1.13,1.262A76.1,76.1,0,0,0,.5-10.532,120.259,120.259,0,0,0,1.3,4.283a1.246,1.246,0,0,0,1.13,1.262H30.32a1.164,1.164,0,0,0,1.129-1.262c.01-.77-.31-6.863-.31-13.566s.31-14.415.31-14.415A1.2,1.2,0,0,0,30.32-24.96Z" data-name="Path 230" transform="translate(0.084 25.526)"/><path id="Path_231" fill="url(#linear-gradient-3)" d="M14.977-22.354c.881.367,4.415,2.274,4.848,2.881a29.659,29.659,0,0,0-7.147,2.051l-.109.221a48.768,48.768,0,0,1,6.965-.8,21.97,21.97,0,0,1-2.374,2.844l-.1.239c2.162-1.295,2.769-1.387,4.762-2.55.752,1.11.934,3.666.963,5.692.648-1.286,1.436-6.127,1.107-7,1.322-.9,1.5-1.632,1.5-1.632a12.346,12.346,0,0,0-2.533.331,23.209,23.209,0,0,0-7.776-2.5Z" data-name="Path 231" transform="translate(3.201 26.141)"/><path id="Path_232" fill="url(#linear-gradient-4)" d="M4.377-10.394a13.475,13.475,0,0,0-.013,4.056,15.15,15.15,0,0,0-1.759.43l-.1.221A22.561,22.561,0,0,0,4.98-4.332,8.434,8.434,0,0,0,6.865-1.67l.1-.225A4.824,4.824,0,0,1,6.691-3.7,11.855,11.855,0,0,0,9.858-3.2l.1-.224A8.494,8.494,0,0,1,6.988-4.957a8.625,8.625,0,0,1,1.08-2.071l.107-.226c-.91.136-1.734.468-2.52.62A14.849,14.849,0,0,1,4.482-10.62l-.1.226Z" data-name="Path 232" transform="translate(0.603 29.229)"/><path id="Path_233" fill="url(#linear-gradient-5)" d="M9.4-15.97A16.1,16.1,0,0,0,7.595-16a17.01,17.01,0,0,0-3.061.33l-.1.221a5.659,5.659,0,0,1,3.176.916c.575.575-1.666,1.5-3.317,4.775s2.995-2.8,4.29-3.493S9.262-11,9.732-9.871l.1-.224a18.609,18.609,0,0,1,1.007-3.9c.552-1.2.2-.118,1.153-.211a17.53,17.53,0,0,1,4.891.315l.106-.22a17.781,17.781,0,0,0-5.413-1.68h.082a11.5,11.5,0,0,1,.765-1.751A9.023,9.023,0,0,0,9.4-15.97" data-name="Path 233" transform="translate(0.974 27.443)"/><path id="Path_234" fill="url(#linear-gradient-6)" d="M14.161-4.96c-.038-.434-.068-.868-.088-1.3q-.721.987-1.539,1.9a7.093,7.093,0,0,1-1.934.155c-.238,0-.476,0-.713,0l-.1.225a6.829,6.829,0,0,0,1.783.614A13.477,13.477,0,0,1,9.93-2.252l-.1.22a12.8,12.8,0,0,0,3.318-1.243,6.034,6.034,0,0,0,1.346-.081c.352-.07.1-.229.1-.224-.064-.226-.267-.365-.326-.682A23.33,23.33,0,0,0,16.64-6.406l.108-.225A20.164,20.164,0,0,1,14.161-4.96" data-name="Path 234" transform="translate(2.482 30.259)"/><path id="Path_235" fill="#fff" d="M24.5-17.7c-1.988,1.165-2.6,1.263-4.76,2.554a21.926,21.926,0,0,0,2.476-3.083,48.14,48.14,0,0,0-6.958.8A27.7,27.7,0,0,1,22.51-19.7c-.437-.6-3.973-2.511-4.853-2.879a20.841,20.841,0,0,1,7.881,2.271,12.877,12.877,0,0,1,2.545-.321A3.361,3.361,0,0,1,26.569-19c.331.881-.458,5.72-1.11,7-.024-2.024-.2-4.58-.961-5.692M9.939-.332A7.915,7.915,0,0,1,7.068-2.091,8.876,8.876,0,0,1,8.154-4.167Q6.942-4,5.739-3.773A12.292,12.292,0,0,1,4.461-7.533a13.592,13.592,0,0,0-.016,4.06,12.1,12.1,0,0,0-1.86.653A23.34,23.34,0,0,0,5.062-1.466,8.352,8.352,0,0,0,6.95,1.192,4.9,4.9,0,0,1,6.777-.837a11.843,11.843,0,0,0,3.162.5m2.974-16.095a6.576,6.576,0,0,0-.881,1.717,14.7,14.7,0,0,1,5.31,1.9,17.32,17.32,0,0,0-4.894-.312,3.7,3.7,0,0,0-1.151.2,20.256,20.256,0,0,0-1.111,4.123c-.468-1.126-1.145-3.381-1.145-3.381A34.559,34.559,0,0,0,4.752-8.68a17.08,17.08,0,0,1,3.312-4.774,5.649,5.649,0,0,0-3.179-.916,12.406,12.406,0,0,1,3.163-.556,16.333,16.333,0,0,1,1.809.031,9.081,9.081,0,0,1,3.057-1.535M16.038-2.367a24.26,24.26,0,0,1-1.544,1.9,9.534,9.534,0,0,1-2.748.379,6.758,6.758,0,0,0,1.787.617A12.46,12.46,0,0,1,11.79,1.865,12.782,12.782,0,0,0,15.107.62,6.031,6.031,0,0,0,16.455.537a7.583,7.583,0,0,1-.223-.906,22.71,22.71,0,0,0,2.374-2.145,15.987,15.987,0,0,1-2.484,1.447q-.059-.649-.086-1.3" data-name="Path 235" transform="translate(0.623 26.141)"/><path id="Path_236" d="M35.742-15.484c1.972.016,2.694.415,2.694,1.486a1.133,1.133,0,0,1-.264.757,2.437,2.437,0,0,1-2.052.629H36.07l-.55,1.429h.55a3.147,3.147,0,0,1,2.521.9,1.431,1.431,0,0,1,.337.925c0,1.12-.989,1.7-2.939,1.7-.327,0-.862,0-1.194-.011q-.07-2.061-.081-4.123c0-.7.047-2.276.081-3.616a5.21,5.21,0,0,1,.946-.075m-3.653-1.03c.062,1.062.122,3.744.122,4.722,0,.9,0,3.919-.159,5.22l-.01.1h4.731c2.325,0,4.784-.72,4.784-2.778,0-1.287-.936-2.24-2.686-2.76a2.562,2.562,0,0,0,2.164-2.243c0-1.68-1.938-2.311-3.757-2.355H32.062l.028.094Zm20.384-.094h-2.3l.093,2.557c.045,1.263.088,2.563.177,3.825a7.252,7.252,0,0,0-.988-1.614c0-.035-2.394-3.7-3.225-4.743l-.023-.025H43.537v.1c.084,1.062.118,3.744.118,4.722,0,.9,0,3.919-.127,5.22l-.023.1h2.379v-.1c-.135-2.475-.135-4.972-.135-7.394a3.452,3.452,0,0,0,.562,1.1c.031.065,4.131,6.014,4.329,6.354l.021.043h1.906l0-.1c-.146-1.3-.157-4.318-.157-5.22,0-.978.064-3.661.126-4.722l.031-.094h-.093Zm6.243,1.223a3.3,3.3,0,0,1,2.693.8,1.4,1.4,0,0,1,.315.913c0,1.467-1.657,1.787-3.041,1.787l-.562-.031-.232-.023c-.01-.34-.01-.788-.01-1.288,0-.638,0-1.4.03-2.1a6.2,6.2,0,0,1,.808-.059m-3.49-1.129c.093,1.062.13,3.744.13,4.722,0,.9,0,3.919-.14,5.22v.1h2.831l-.013-.1c-.1-.936-.146-2.721-.156-4.085l.536.025.4.009c3.724,0,5.536-.981,5.536-3.05,0-2.353-2.542-2.891-4.659-2.935H55.228v.094Zm18.015,1.129a3.324,3.324,0,0,1,2.7.8,1.378,1.378,0,0,1,.307.913c0,1.467-1.655,1.787-3.021,1.787l-.561-.031s-.148-.013-.235-.023c-.015-.34-.015-.79-.015-1.288,0-.644,0-1.4.025-2.1a6.006,6.006,0,0,1,.8-.059m-3.485-1.129c.088,1.062.141,3.744.141,4.722,0,.9-.01,3.919-.156,5.22v.1h2.833l-.018-.1c-.089-.936-.141-2.721-.141-4.085l.51.025.41.009c3.724,0,5.551-.981,5.551-3.05,0-2.353-2.555-2.891-4.682-2.935H69.756v.094Zm13.607,2.891c.225.483.809,1.831,1.467,3.44-.1,0-.229,0-.229,0l-1.238.018-1.5-.021c.536-1.286,1.064-2.448,1.5-3.44m-.689-2.986h-.038l-.019.05c-.527,1.443-3.924,8.831-4.462,9.962l-.045.126h2.412l.02-.055c.213-.7.5-1.48.809-2.315.1,0,2.012-.03,2.012-.03l1.666.013s.268.016.349.016c.428,1.09.759,1.912.9,2.329l.028.043h2.8L84.587-16.607H82.674Zm7.563.094c.082,1.062.122,3.744.122,4.722,0,.9,0,3.919-.155,5.22v.1h2.85l-.013-.1c-.151-1.31-.161-4.318-.161-5.22,0-.7.023-2.275.092-3.544.216-.015.546-.049.768-.049a3.3,3.3,0,0,1,2.686.8,1.36,1.36,0,0,1,.3.913,2,2,0,0,1-2.118,1.818,3.146,3.146,0,0,1-.6-.03l-.2-.033.108.185c1.012,1.471,2.524,4.016,3.149,5.222l.018.042h3.044l-.075-.136c-.126-.171-2.106-3.079-2.949-4.321L97.036-11c1.56-.467,2.315-1.337,2.315-2.671,0-2.334-2.542-2.89-4.688-2.935H90.231l.008.094Zm13.924-.094h-2.713l.015.094c.07,1.062.126,3.744.126,4.722,0,.9-.013,3.91-.141,5.22l-.011.1h2.813l-.015-.1c-.108-1.31-.142-4.323-.142-5.22,0-.978.069-3.661.142-4.722v-.094Zm6.3,1.124c1.988.016,2.71.415,2.71,1.486a1.1,1.1,0,0,1-.273.757,2.425,2.425,0,0,1-2.055.629H110.8l-.547,1.429h.547a3.134,3.134,0,0,1,2.516.9,1.386,1.386,0,0,1,.35.925c0,1.12-.994,1.7-2.954,1.7-.315,0-.846,0-1.176-.011-.082-1.493-.082-3.514-.082-4.123,0-.7.025-2.276.082-3.616a4.94,4.94,0,0,1,.927-.075m-3.651-1.03c.082,1.062.131,3.744.131,4.722,0,.9,0,3.919-.142,5.22l-.023.1h4.737c2.315,0,4.784-.72,4.784-2.778,0-1.287-.939-2.24-2.7-2.76a2.573,2.573,0,0,0,2.177-2.243c0-1.68-1.94-2.311-3.743-2.355H106.8ZM122.1-13.627c.226.472.808,1.822,1.466,3.435-.1,0-.223.01-.223.01l-1.243.016s-1.3-.028-1.49-.028q.71-1.731,1.49-3.435m1.17-2.979h-1.9l-.011.045c-.569,1.535-4.157,9.312-4.459,9.957l-.053.136h2.425l.015-.06c.2-.695.484-1.475.8-2.328l2-.03,1.668.026.355,0c.438,1.09.762,1.919.9,2.328l.025.06h2.806l-4.512-10.139Zm5.366,2.622c0,1.78,1.79,2.5,3.376,3.153,1.234.491,2.525,1.007,2.525,1.856a.87.87,0,0,1-.2.624c-.3.349-.9.5-1.851.443a8.668,8.668,0,0,1-3.208-.886l-.469-.225v2.209l.32.082.186.031a12.427,12.427,0,0,0,2.869.415c2.989,0,4.772-1.189,4.772-3.152,0-1.845-1.842-2.56-3.468-3.207-1.2-.484-2.438-.964-2.438-1.754,0-.228,0-.893,1.548-.893a8.242,8.242,0,0,1,2.879.7l.575.239,0-.38v-1.837l-.571-.1a13.007,13.007,0,0,0-2.545-.31c-2.578,0-4.3,1.213-4.3,2.991" data-name="Path 236" transform="translate(8.229 27.588)"/></g></g></g></g></g></svg>