<svg xmlns="http://www.w3.org/2000/svg" xmlns:xlink="http://www.w3.org/1999/xlink" width="182.478" height="71.028" viewBox="0 0 182.478 71.028">
  <defs>
    <linearGradient id="linear-gradient" y1="0.337" x2="1" y2="0.685" gradientUnits="objectBoundingBox">
      <stop offset="0" stop-color="#548638"/>
      <stop offset="1" stop-color="#8dbf43"/>
    </linearGradient>
    <clipPath id="clip-path">
      <rect id="Rectangle_7389" data-name="Rectangle 7389" width="43.124" height="71.028" transform="translate(0 0)" fill="#1a6466" stroke="#707070" stroke-width="1"/>
    </clipPath>
  </defs>
  <g id="Group_11823" data-name="Group 11823" transform="translate(3822 177)">
    <g id="Group_11818" data-name="Group 11818" transform="translate(-3769.48 -158.692)">
      <path id="Path_10959" data-name="Path 10959" d="M922.021,296.459l6.621-1.863c.653.99.054,2.145.431,3.174,1.1-.148,1.664-.977,2.3-1.581,2.366-2.26,5.018-2.113,7.747-1.008,2.649,1.072,3.358,3.392,3.41,5.976.063,3.123.086,6.249.034,9.372-.024,1.463.192,2.536,2,2.441.516-.027,1.1.077,1.077.751-.029.734-.676.566-1.152.594-.084.005-.169-.012-.253-.011-5.192.1-5.192.1-5.191-5.235,0-2.28.053-4.561-.013-6.84-.095-3.279-2-5.18-4.976-5.074-3.247.115-5.085,2.019-5.095,5.3-.008,2.7.027,5.4,0,8.106-.013,1.439.266,2.525,2.069,2.413.536-.034,1.334-.169,1.348.707.014.976-.833.626-1.33.632-2.7.036-5.4.027-8.1.006-.367,0-.913.181-1.013-.424-.108-.658.334-.967.9-.9,2.817.331,2.612-1.578,2.6-3.4-.02-2.7,0-5.4-.005-8.106,0-2.3.568-5.025-3.939-4.06Z" transform="translate(-815.677 -284.601)" fill="#215263"/>
      <path id="Path_10960" data-name="Path 10960" d="M853.128,298.506c.941-1.014,1.728-1.958,2.615-2.8a3.821,3.821,0,0,1,4.191-1.018c1.61.685.466,2.208.567,3.347a7.587,7.587,0,0,1-.277,1.857.906.906,0,0,1-.99-.357c-2.327-2.266-5.151-1.658-5.952,1.443-.894,3.462-.478,7.03-.268,10.552.106,1.779,1.622,1.324,2.717,1.438.589.062,1.354,0,1.331.786-.026.9-.884.56-1.387.567-2.781.036-5.563.024-8.344.007-.462,0-1.134.176-1.217-.518-.106-.882.644-.876,1.211-.836,1.64.116,1.975-.8,1.96-2.192-.04-3.709-.054-7.419.01-11.127.027-1.544-.423-2.436-2.12-2.335-.395.023-.942.074-1.011-.471-.1-.76.582-.632,1.035-.748.568-.145,1.126-.326,1.7-.467C852.6,294.722,852.6,294.724,853.128,298.506Z" transform="translate(-778.544 -284.61)" fill="#215263"/>
      <path id="Path_10962" data-name="Path 10962" d="M781.312,304.174c0,2.36.045,4.721-.016,7.08-.036,1.391.251,2.332,1.914,2.211.579-.042,1.355-.054,1.36.739.006.917-.849.6-1.359.611-2.612.033-5.225.023-7.838.01-.468,0-1.115.132-1.138-.609-.022-.688.562-.786,1.073-.735,2.028.2,2.353-.963,2.324-2.634-.06-3.455-.052-6.913,0-10.368.026-1.681-.348-2.847-2.364-2.676-.392.033-.915.037-.949-.533-.035-.588.5-.512.887-.641,6.105-2.05,6.1-2.053,6.1,4.258Q781.311,302.531,781.312,304.174Z" transform="translate(-743.136 -285.097)" fill="#215263"/>
      <path id="Path_10966" data-name="Path 10966" d="M713.432,275.083v44.09l-.494,0V275.1Z" transform="translate(-712.938 -275.083)" fill="#1b3d4a"/>
      <path id="Path_10968" data-name="Path 10968" d="M784.491,282.079a1.966,1.966,0,0,1-2.085,2.217,1.87,1.87,0,0,1-2.088-2.192,1.97,1.97,0,0,1,2.055-2.056A2.01,2.01,0,0,1,784.491,282.079Z" transform="translate(-746.131 -277.529)" fill="#215263"/>
      <path id="Path_10971" data-name="Path 10971" d="M817.514,298.317c1.408.093,2.741.047,2.885-1.908-1.155-.475-2.329-.106-3.472-.192s-2.293.22-3.394-.579a7.652,7.652,0,0,0-6.077-.961c-4.927.876-7.644,3.925-7.4,8.048.166,2.872,2.246,4.087,4.479,5.236-5.192,4.023-3.764,4.974-1,6.747-.619.323-1.217.615-1.8.939-3.12,1.746-3.65,5.1-1.233,7.755,4.794,5.267,16.465,2.779,18.694-3.985,1.391-4.223-.875-7.474-5.281-7.54-2.278-.034-4.555-.008-6.833-.013-1.074,0-2.244-.244-2.327-1.423-.088-1.266.956-2.087,2.11-2.495a7.794,7.794,0,0,1,1.76-.09c4.5-.438,8.107-4.083,7.463-7.9C815.82,298.356,816.293,298.236,817.514,298.317Zm-10.6,16.654c.843-.006,1.685,0,2.528,0s1.689-.051,2.527.011c4.021.3,5.508,3.345,3.285,6.687-2.059,3.1-7.552,4.211-10.652,2.116-1.824-1.234-2.808-2.963-2.223-5.185A4.4,4.4,0,0,1,806.918,314.971Zm1.287-8.5c-2.778-.025-4.562-2.168-4.559-5.477s1.45-4.974,4.289-4.923c2.821.051,4.627,2.245,4.687,5.7A4.325,4.325,0,0,1,808.2,306.474Z" transform="translate(-755.334 -284.632)" fill="#215263"/>
      <path id="Path_10972" data-name="Path 10972" d="M889.442,294.521c-6.048.111-10.3,4.564-10.263,10.746.037,5.871,3.935,9.925,9.474,9.849,6.487-.088,10.981-4.623,10.9-11C899.484,298.443,895.237,294.414,889.442,294.521Zm4.85,16.826c-2.094,3.274-6.7,3.168-9.085-.279A11.507,11.507,0,0,1,883.173,304a11.711,11.711,0,0,1,.527-4.082c1.649-4.419,6.236-5.35,9.394-1.871C895.9,301.145,896.509,307.881,894.292,311.347Z" transform="translate(-794.838 -284.658)" fill="#215263"/>
      <path id="Path_10973" data-name="Path 10973" d="M750.937,312.945c-1.94.141-1.9-1.142-1.891-2.484.011-3.032.042-6.067-.055-9.1-.176-5.57-3.245-7.956-8.654-6.76a15.083,15.083,0,0,0-4.315,2,2.041,2.041,0,0,0-.942,2.162c.033.486-.074,1.079.513,1.291.706.256.775-.423,1.015-.821,1.654-2.751,3.49-3.34,6.442-2.032a3.879,3.879,0,0,1,2.474,4.027c-.161,1.769-1.954,1.112-3.025,1.344a19.952,19.952,0,0,0-6.427,2.049,5.73,5.73,0,0,0-1.879,7.932c1.606,2.5,4.642,2.892,7.491.977,1.164-.783,2.329-1.564,3.9-2.62-.843,3.62,1.172,3.5,3.3,3.3.582-.056,1.179.056,1.767.038.449-.014,1.095.269,1.227-.449C752,313.127,751.476,312.906,750.937,312.945Zm-5.189-6.766a5.774,5.774,0,0,1-5.129,6.047,2.969,2.969,0,0,1-3.115-1.7,3.754,3.754,0,0,1,.757-4.621,8.731,8.731,0,0,1,6.49-2.229C746.766,303.686,745.121,305.624,745.748,306.179Z" transform="translate(-722.977 -284.552)" fill="#215263"/>
    </g>
    <g id="Group_11822" data-name="Group 11822" transform="translate(-3822 -177)">
      <g id="Group_11819" data-name="Group 11819" transform="translate(0 0)">
        <path id="Path_10975" data-name="Path 10975" d="M-4526.586-583.488v5.4h-9.438s-1.066,7,3.653,8.525c-.075-3.882,0-6.851,0-6.851h5.785v12.788s-17.157,1.172-13.1-19.867C-4532.462-583.449-4526.586-583.488-4526.586-583.488Z" transform="translate(4569.71 616.798)" fill="url(#linear-gradient)"/>
        <g id="Group_11815" data-name="Group 11815" transform="translate(0 0)">
          <rect id="Rectangle_7390" data-name="Rectangle 7390" width="11.162" height="5.073" transform="translate(43.124 20.294) rotate(90)" fill="#1a6466"/>
          <g id="Mask_Group_44" data-name="Mask Group 44" transform="translate(0 0)" clip-path="url(#clip-path)">
            <path id="Path_10976" data-name="Path 10976" d="M21.666,4.566c-9.429,0-17.1,7.215-17.1,16.083s7.671,16.082,17.1,16.082,17.1-7.215,17.1-16.082S31.1,4.566,21.666,4.566m0-4.566C33.633,0,43.333,9.245,43.333,20.649S33.633,41.3,21.666,41.3,0,32.052,0,20.649,9.7,0,21.666,0Z" transform="translate(22.723 19.338)" fill="#1a6466"/>
          </g>
        </g>
      </g>
    </g>
  </g>
</svg>
