<svg xmlns="http://www.w3.org/2000/svg" xmlns:xlink="http://www.w3.org/1999/xlink" width="564" height="277" viewBox="0 0 564 277"><defs><linearGradient id="linear-gradient" x2="1" y1=".337" y2=".685" gradientUnits="objectBoundingBox"><stop offset="0" stop-color="#548638"/><stop offset="1" stop-color="#8dbf43"/></linearGradient><clipPath id="clip-path"><rect id="Rectangle_7389" width="108.024" height="177.921" fill="#1a6466" stroke="#707070" stroke-width="1" data-name="Rectangle 7389"/></clipPath></defs><g id="Group_11826" data-name="Group 11826" transform="translate(2289 603)"><rect id="Rectangle_7398" width="561" height="274" fill="#fff" data-name="Rectangle 7398" transform="translate(-2289 -603)"/><line id="Line_46" y2="254" fill="none" stroke="#6ba53a" stroke-width="5" data-name="Line 46" transform="translate(-1727.5 -582.5)"/><line id="Line_47" x2="561" fill="none" stroke="#6ba53a" stroke-width="5" data-name="Line 47" transform="translate(-2288.5 -328.5)"/><g id="Group_11825" data-name="Group 11825" transform="translate(1582.951 -377.961)"><g id="Group_11818" data-name="Group 11818" transform="translate(-3690.441 -131.138)"><path id="Path_10959" fill="#215263" d="M922.838,299.555l16.585-4.668c1.637,2.479.135,5.373,1.08,7.952,2.755-.371,4.167-2.446,5.753-3.961,5.926-5.66,12.57-5.292,19.4-2.525,6.635,2.684,8.411,8.5,8.542,14.97.157,7.824.215,15.653.085,23.477-.061,3.664.482,6.353,5,6.114,1.294-.069,2.765.193,2.7,1.881-.073,1.838-1.694,1.417-2.886,1.487-.211.013-.423-.03-.634-.027-13,.259-13,.259-13-13.113,0-5.711.132-11.426-.032-17.133-.238-8.215-5.01-12.975-12.464-12.711-8.134.287-12.738,5.058-12.762,13.287-.019,6.769.067,13.539.009,20.306-.032,3.6.667,6.325,5.184,6.044,1.343-.084,3.342-.423,3.375,1.772.036,2.444-2.087,1.567-3.332,1.582-6.766.089-13.535.067-20.3.015-.919-.008-2.287.454-2.537-1.062-.269-1.647.836-2.422,2.243-2.257,7.056.829,6.542-3.952,6.51-8.512-.051-6.769,0-13.537-.013-20.306-.009-5.761,1.423-12.588-9.868-10.171Z" data-name="Path 10959" transform="translate(-656.452 -269.85)"/><path id="Path_10960" fill="#215263" d="M863.7,304.655c2.358-2.54,4.329-4.905,6.552-7,2.965-2.8,6.752-4.143,10.5-2.551,4.034,1.716,1.168,5.532,1.421,8.385.138,1.568-.456,3.2-.694,4.653a2.269,2.269,0,0,1-2.479-.893c-5.828-5.676-12.9-4.154-14.908,3.616-2.239,8.672-1.2,17.609-.672,26.431.266,4.456,4.063,3.317,6.807,3.6,1.475.155,3.392.011,3.335,1.969-.066,2.258-2.215,1.4-3.475,1.42-6.966.09-13.935.061-20.9.017-1.156-.008-2.84.44-3.049-1.3-.264-2.209,1.613-2.193,3.034-2.093,4.109.291,4.946-2,4.909-5.49-.1-9.29-.136-18.584.025-27.871.068-3.867-1.058-6.1-5.31-5.85-.989.058-2.359.184-2.531-1.181-.24-1.905,1.458-1.584,2.594-1.873,1.422-.362,2.821-.816,4.246-1.169C862.373,295.176,862.375,295.181,863.7,304.655Z" data-name="Path 10960" transform="translate(-676.868 -269.845)"/><path id="Path_10962" fill="#215263" d="M791.964,317.364c0,5.912.113,11.827-.041,17.735-.09,3.484.629,5.842,4.8,5.537,1.451-.105,3.393-.136,3.406,1.85.014,2.3-2.127,1.515-3.4,1.531-6.544.083-13.089.058-19.634.024-1.172-.006-2.794.332-2.852-1.525-.055-1.723,1.407-1.969,2.687-1.84,5.081.507,5.894-2.413,5.822-6.6-.151-8.655-.131-17.315,0-25.97.066-4.212-.871-7.132-5.921-6.7-.981.083-2.293.093-2.378-1.336-.088-1.473,1.263-1.284,2.221-1.605,15.294-5.134,15.29-5.143,15.291,10.665Q791.961,313.247,791.964,317.364Z" data-name="Path 10962" transform="translate(-696.335 -269.577)"/><path id="Path_10966" fill="#1b3d4a" d="M714.176,275.083V385.526l-1.238.011V275.125Z" data-name="Path 10966" transform="translate(-712.938 -275.083)"/><path id="Path_10968" fill="#215263" d="M790.778,285.137c-.081,3.969-2.234,5.48-5.222,5.552-3.492.086-5.418-1.964-5.23-5.491.167-3.119,2.056-5.153,5.148-5.15C788.922,280.052,790.57,282.362,790.778,285.137Z" data-name="Path 10968" transform="translate(-694.688 -273.738)"/><path id="Path_10971" fill="#215263" d="M845.387,304.113c3.528.234,6.865.117,7.227-4.78-2.892-1.189-5.834-.264-8.7-.48-2.877-.217-5.743.552-8.5-1.45-4.556-3.307-9.924-3.35-15.223-2.408-12.343,2.195-19.147,9.831-18.547,20.161.417,7.193,5.625,10.238,11.219,13.117-13,10.078-9.429,12.46-2.495,16.9-1.552.808-3.049,1.54-4.5,2.352-7.815,4.374-9.144,12.773-3.088,19.427,12.008,13.193,41.245,6.961,46.826-9.981,3.485-10.579-2.191-18.723-13.228-18.886-5.7-.085-11.411-.02-17.116-.033-2.691-.006-5.622-.611-5.828-3.564-.221-3.171,2.394-5.227,5.286-6.249,1.328-.469,2.938-.084,4.408-.226,11.276-1.1,20.308-10.228,18.7-19.785C841.145,304.211,842.328,303.911,845.387,304.113Zm-26.543,41.717c2.111-.014,4.222,0,6.333,0s4.232-.128,6.33.028c10.072.748,13.8,8.379,8.229,16.751-5.157,7.753-18.917,10.549-26.682,5.3-4.57-3.091-7.033-7.423-5.569-12.988C808.968,349.281,812.665,345.871,818.844,345.831Zm3.224-21.284c-6.958-.064-11.426-5.432-11.419-13.72s3.632-12.461,10.743-12.331c7.067.128,11.59,5.625,11.74,14.268C833.252,319.68,828.626,324.607,822.068,324.546Z" data-name="Path 10971" transform="translate(-689.629 -269.833)"/><path id="Path_10972" fill="#215263" d="M904.887,294.524c-15.15.278-25.8,11.433-25.707,26.918.092,14.706,9.858,24.861,23.731,24.671,16.251-.221,27.508-11.581,27.307-27.559C930.04,304.349,919.4,294.256,904.887,294.524Zm12.149,42.15c-5.246,8.2-16.781,7.935-22.759-.7a28.823,28.823,0,0,1-5.095-17.7c.048-4.059.177-7.164,1.319-10.225,4.132-11.069,15.62-13.4,23.531-4.687C921.068,311.117,922.589,327.991,917.037,336.674Z" data-name="Path 10972" transform="translate(-667.909 -269.818)"/><path id="Path_10973" fill="#215263" d="M777.457,341c-4.86.353-4.748-2.861-4.736-6.223.027-7.6.1-15.2-.137-22.787-.441-13.951-8.129-19.928-21.678-16.934-3.926.867-7.364,2.971-10.809,5-2.181,1.286-2.511,3.209-2.36,5.416.083,1.217-.185,2.7,1.286,3.234,1.769.64,1.942-1.06,2.542-2.056,4.143-6.892,8.742-8.366,16.136-5.09,4.355,1.932,6.6,5.658,6.2,10.088s-4.9,2.785-7.577,3.368c-5.556,1.209-11.191,2.116-16.1,5.132a14.352,14.352,0,0,0-4.706,19.869c4.024,6.255,11.627,7.245,18.764,2.446,2.915-1.961,5.835-3.917,9.782-6.564-2.112,9.069,2.936,8.778,8.259,8.267,1.458-.14,2.952.141,4.425.094,1.126-.036,2.742.675,3.074-1.126C780.129,341.456,778.808,340.9,777.457,341Zm-13-16.95c-.018,8.273-5.36,14.329-12.848,15.147a7.438,7.438,0,0,1-7.8-4.25c-2.193-4.224-1.3-8.345,1.9-11.576,4.4-4.452,10.439-5.6,16.257-5.583C767.009,317.806,762.888,322.663,764.459,324.052Z" data-name="Path 10973" transform="translate(-707.419 -269.877)"/></g><g id="Group_11822" data-name="Group 11822" transform="translate(-3822 -177)"><g id="Group_11819" data-name="Group 11819" transform="translate(0 0)"><path id="Path_10975" fill="url(#linear-gradient)" d="M-4505.938-583.487v13.537h-23.641s-2.669,17.542,9.15,21.355c-.187-9.724,0-17.161,0-17.161h14.491v32.033s-42.977,2.936-32.813-49.765C-4520.656-583.392-4505.938-583.487-4505.938-583.487Z" data-name="Path 10975" transform="translate(4613.961 666.929)"/><g id="Group_11815" data-name="Group 11815" transform="translate(0 0)"><rect id="Rectangle_7390" width="27.959" height="12.709" fill="#1a6466" data-name="Rectangle 7390" transform="translate(108.024 50.835) rotate(90)"/><g id="Mask_Group_44" clip-path="url(#clip-path)" data-name="Mask Group 44"><path id="Path_10976" fill="#1a6466" d="M54.273,11.438c-23.62,0-42.836,18.072-42.836,40.286S30.654,92.01,54.273,92.01,97.109,73.937,97.109,51.724,77.893,11.438,54.273,11.438M54.273,0c29.974,0,54.273,23.157,54.273,51.724s-24.3,51.724-54.273,51.724S0,80.29,0,51.724,24.3,0,54.273,0Z" data-name="Path 10976" transform="translate(56.919 48.442)"/></g></g></g></g></g></g></svg>